<?xml version="1.0" encoding="UTF-8"?>
<svg xmlns="http://www.w3.org/2000/svg" xmlns:xlink="http://www.w3.org/1999/xlink" width="612" height="792" viewBox="0 0 612 792">
<defs>
<clipPath id="clip-0">
<path clip-rule="nonzero" d="M 119 15 L 223 15 L 223 112 L 119 112 Z M 119 15 "/>
</clipPath>
<clipPath id="clip-1">
<path clip-rule="nonzero" d="M 134 15 L 223 15 L 223 97 L 134 97 Z M 134 15 "/>
</clipPath>
<clipPath id="clip-2">
<path clip-rule="nonzero" d="M 149 15 L 238 15 L 238 97 L 149 97 Z M 149 15 "/>
</clipPath>
<clipPath id="clip-3">
<path clip-rule="nonzero" d="M 359 15 L 463 15 L 463 112 L 359 112 Z M 359 15 "/>
</clipPath>
<clipPath id="clip-4">
<path clip-rule="nonzero" d="M 374 15 L 463 15 L 463 97 L 374 97 Z M 374 15 "/>
</clipPath>
<clipPath id="clip-5">
<path clip-rule="nonzero" d="M 389 15 L 478 15 L 478 97 L 389 97 Z M 389 15 "/>
</clipPath>
</defs>
<path fill-rule="nonzero" fill="rgb(50.19989%, 50.19989%, 50.19989%)" fill-opacity="1" stroke-width="5" stroke-linecap="butt" stroke-linejoin="miter" stroke="rgb(50.19989%, 50.19989%, 50.19989%)" stroke-opacity="1" stroke-miterlimit="4" d="M 120.00001 80.000004 C 120.00001 81.312504 119.937509 82.614588 119.807301 83.921879 C 119.677093 85.223963 119.484384 86.520838 119.229176 87.802088 C 118.973968 89.088546 118.656259 90.35938 118.276051 91.60938 C 117.895843 92.864588 117.458343 94.098963 116.953134 95.307296 C 116.453134 96.51563 115.895843 97.697922 115.276051 98.854172 C 114.661468 100.010422 113.984384 101.135422 113.260426 102.223963 C 112.531259 103.312505 111.750009 104.364589 110.921884 105.375005 C 110.088551 106.39063 109.208342 107.35938 108.286467 108.286464 C 107.359384 109.208339 106.390634 110.088547 105.375009 110.92188 C 104.364592 111.750005 103.312509 112.531256 102.223967 113.260422 C 101.135425 113.984381 100.010425 114.661464 98.854175 115.276047 C 97.697925 115.895839 96.515634 116.453131 95.3073 116.953131 C 94.098967 117.458339 92.864592 117.895839 91.609383 118.276047 C 90.359383 118.656256 89.08855 118.973964 87.802091 119.229172 C 86.520841 119.484381 85.223966 119.677089 83.921883 119.807297 C 82.614591 119.937506 81.312508 120.000006 80.000008 120.000006 C 78.687508 120.000006 77.385424 119.937506 76.078133 119.807297 C 74.776049 119.677089 73.479174 119.484381 72.197924 119.229172 C 70.911466 118.973964 69.640632 118.656256 68.390632 118.276047 C 67.135424 117.895839 65.901049 117.458339 64.692716 116.953131 C 63.484382 116.453131 62.30209 115.895839 61.14584 115.276047 C 59.98959 114.661464 58.86459 113.984381 57.776049 113.260422 C 56.687507 112.531256 55.635423 111.750005 54.625007 110.92188 C 53.609382 110.088547 52.640632 109.208339 51.713548 108.286464 C 50.791673 107.35938 49.911465 106.39063 49.078132 105.375005 C 48.250007 104.364589 47.468756 103.312505 46.73959 102.223963 C 46.015631 101.135422 45.338548 100.010422 44.723965 98.854172 C 44.104173 97.697922 43.546881 96.51563 43.046881 95.307296 C 42.541673 94.098963 42.104173 92.864588 41.723965 91.60938 C 41.343756 90.35938 41.026048 89.088546 40.77084 87.802088 C 40.510423 86.520838 40.322923 85.223963 40.192715 83.921879 C 40.062506 82.614588 40.000006 81.312504 40.000006 80.000004 C 40.000006 78.687504 40.062506 77.385421 40.192715 76.078129 C 40.322923 74.776046 40.510423 73.479171 40.77084 72.197921 C 41.026048 70.911462 41.343756 69.640629 41.723965 68.390629 C 42.104173 67.13542 42.541673 65.901045 43.046881 64.692712 C 43.546881 63.484378 44.104173 62.302087 44.723965 61.145837 C 45.338548 59.989587 46.015631 58.864587 46.73959 57.776045 C 47.468756 56.687503 48.250007 55.63542 49.078132 54.625003 C 49.911465 53.609378 50.791673 52.640628 51.713548 51.713545 C 52.640632 50.79167 53.609382 49.911461 54.625007 49.078128 C 55.635423 48.250003 56.687507 47.468753 57.776049 46.739586 C 58.86459 46.015628 59.98959 45.338544 61.14584 44.723961 C 62.30209 44.104169 63.484382 43.546878 64.692716 43.046878 C 65.901049 42.541669 67.135424 42.104169 68.390632 41.723961 C 69.640632 41.343753 70.911466 41.026044 72.197924 40.770836 C 73.479174 40.510419 74.776049 40.322919 76.078133 40.192711 C 77.385424 40.062503 78.687508 40.000003 80.000008 40.000003 C 81.312508 40.000003 82.614591 40.062503 83.921883 40.192711 C 85.223966 40.322919 86.520841 40.510419 87.802091 40.770836 C 89.08855 41.026044 90.359383 41.343753 91.609383 41.723961 C 92.864592 42.104169 94.098967 42.541669 95.3073 43.046878 C 96.515634 43.546878 97.697925 44.104169 98.854175 44.723961 C 100.010425 45.338544 101.135425 46.015628 102.223967 46.739586 C 103.312509 47.468753 104.364592 48.250003 105.375009 49.078128 C 106.390634 49.911461 107.359384 50.79167 108.286467 51.713545 C 109.208342 52.640628 110.088551 53.609378 110.921884 54.625003 C 111.750009 55.63542 112.531259 56.687503 113.260426 57.776045 C 113.984384 58.864587 114.661468 59.989587 115.276051 61.145837 C 115.895843 62.302087 116.453134 63.484378 116.953134 64.692712 C 117.458343 65.901045 117.895843 67.13542 118.276051 68.390629 C 118.656259 69.640629 118.973968 70.911462 119.229176 72.197921 C 119.484384 73.479171 119.677093 74.776046 119.807301 76.078129 C 119.937509 77.385421 120.00001 78.687504 120.00001 80.000004 Z M 120.00001 80.000004 " transform="matrix(0.75, 0, 0, 0.75, 80.999997, 14.999999)"/>
<path fill-rule="nonzero" fill="rgb(50.19989%, 50.19989%, 50.19989%)" fill-opacity="1" d="M 201 60 C 201 60.984375 200.953125 61.960938 200.855469 62.941406 C 200.757812 63.917969 200.613281 64.890625 200.421875 65.851562 C 200.230469 66.816406 199.992188 67.769531 199.707031 68.707031 C 199.421875 69.648438 199.09375 70.574219 198.714844 71.480469 C 198.339844 72.386719 197.921875 73.273438 197.457031 74.140625 C 196.996094 75.007812 196.488281 75.851562 195.945312 76.667969 C 195.398438 77.484375 194.8125 78.273438 194.191406 79.03125 C 193.566406 79.792969 192.90625 80.519531 192.214844 81.214844 C 191.519531 81.90625 190.792969 82.566406 190.03125 83.191406 C 189.273438 83.8125 188.484375 84.398438 187.667969 84.945312 C 186.851562 85.488281 186.007812 85.996094 185.140625 86.457031 C 184.273438 86.921875 183.386719 87.339844 182.480469 87.714844 C 181.574219 88.09375 180.648438 88.421875 179.707031 88.707031 C 178.769531 88.992188 177.816406 89.230469 176.851562 89.421875 C 175.890625 89.613281 174.917969 89.757812 173.941406 89.855469 C 172.960938 89.953125 171.984375 90 171 90 C 170.015625 90 169.039062 89.953125 168.058594 89.855469 C 167.082031 89.757812 166.109375 89.613281 165.148438 89.421875 C 164.183594 89.230469 163.230469 88.992188 162.292969 88.707031 C 161.351562 88.421875 160.425781 88.09375 159.519531 87.714844 C 158.613281 87.339844 157.722656 86.921875 156.859375 86.457031 C 155.992188 85.996094 155.148438 85.488281 154.332031 84.945312 C 153.515625 84.398438 152.726562 83.8125 151.96875 83.191406 C 151.207031 82.566406 150.480469 81.90625 149.785156 81.214844 C 149.09375 80.519531 148.433594 79.792969 147.808594 79.03125 C 147.1875 78.273438 146.601562 77.484375 146.054688 76.667969 C 145.511719 75.851562 145.003906 75.007812 144.542969 74.140625 C 144.078125 73.273438 143.660156 72.386719 143.285156 71.480469 C 142.90625 70.574219 142.578125 69.648438 142.292969 68.707031 C 142.007812 67.769531 141.769531 66.816406 141.578125 65.851562 C 141.382812 64.890625 141.242188 63.917969 141.144531 62.941406 C 141.046875 61.960938 141 60.984375 141 60 C 141 59.015625 141.046875 58.039062 141.144531 57.058594 C 141.242188 56.082031 141.382812 55.109375 141.578125 54.148438 C 141.769531 53.183594 142.007812 52.230469 142.292969 51.292969 C 142.578125 50.351562 142.90625 49.425781 143.285156 48.519531 C 143.660156 47.613281 144.078125 46.726562 144.542969 45.859375 C 145.003906 44.992188 145.511719 44.148438 146.054688 43.332031 C 146.601562 42.515625 147.1875 41.726562 147.808594 40.96875 C 148.433594 40.207031 149.09375 39.480469 149.785156 38.785156 C 150.480469 38.09375 151.207031 37.433594 151.96875 36.808594 C 152.726562 36.1875 153.515625 35.601562 154.332031 35.054688 C 155.148438 34.511719 155.992188 34.003906 156.859375 33.542969 C 157.722656 33.078125 158.613281 32.660156 159.519531 32.285156 C 160.425781 31.90625 161.351562 31.578125 162.292969 31.292969 C 163.230469 31.007812 164.183594 30.769531 165.148438 30.578125 C 166.109375 30.382812 167.082031 30.242188 168.058594 30.144531 C 169.039062 30.046875 170.015625 30 171 30 C 171.984375 30 172.960938 30.046875 173.941406 30.144531 C 174.917969 30.242188 175.890625 30.382812 176.851562 30.578125 C 177.816406 30.769531 178.769531 31.007812 179.707031 31.292969 C 180.648438 31.578125 181.574219 31.90625 182.480469 32.285156 C 183.386719 32.660156 184.273438 33.078125 185.140625 33.542969 C 186.007812 34.003906 186.851562 34.511719 187.667969 35.054688 C 188.484375 35.601562 189.273438 36.1875 190.03125 36.808594 C 190.792969 37.433594 191.519531 38.09375 192.214844 38.785156 C 192.90625 39.480469 193.566406 40.207031 194.191406 40.96875 C 194.8125 41.726562 195.398438 42.515625 195.945312 43.332031 C 196.488281 44.148438 196.996094 44.992188 197.457031 45.859375 C 197.921875 46.726562 198.339844 47.613281 198.714844 48.519531 C 199.09375 49.425781 199.421875 50.351562 199.707031 51.292969 C 199.992188 52.230469 200.230469 53.183594 200.421875 54.148438 C 200.613281 55.109375 200.757812 56.082031 200.855469 57.058594 C 200.953125 58.039062 201 59.015625 201 60 Z M 201 60 "/>
<g clip-path="url(#clip-0)">
<path fill="none" stroke-width="5" stroke-linecap="butt" stroke-linejoin="miter" stroke="rgb(50.19989%, 50.19989%, 50.19989%)" stroke-opacity="1" stroke-miterlimit="4" d="M 160.000011 60.000003 C 160.000011 61.312503 159.937511 62.614587 159.807303 63.921878 C 159.677094 65.223962 159.484386 66.520837 159.229178 67.802087 C 158.973969 69.088545 158.656261 70.359379 158.276053 71.609379 C 157.895844 72.864587 157.458344 74.098962 156.953136 75.307296 C 156.453136 76.515629 155.895844 77.697921 155.276053 78.854171 C 154.661469 80.010421 153.984386 81.135421 153.260428 82.223963 C 152.531261 83.312504 151.750011 84.364588 150.921886 85.375004 C 150.088552 86.390629 149.208344 87.359379 148.286469 88.286463 C 147.359386 89.208338 146.390636 90.088546 145.375011 90.92188 C 144.364594 91.750005 143.31251 92.531255 142.223969 93.260421 C 141.135427 93.98438 140.010427 94.661463 138.854177 95.276046 C 137.697927 95.895838 136.515635 96.45313 135.307302 96.95313 C 134.098968 97.458338 132.864593 97.895838 131.609385 98.276047 C 130.359385 98.656255 129.088552 98.973963 127.802093 99.229172 C 126.520843 99.48438 125.223968 99.677088 123.921885 99.807297 C 122.614593 99.937505 121.31251 100.000005 120.00001 100.000005 C 118.687509 100.000005 117.385426 99.937505 116.078134 99.807297 C 114.776051 99.677088 113.479176 99.48438 112.197926 99.229172 C 110.911467 98.973963 109.640634 98.656255 108.390634 98.276047 C 107.135426 97.895838 105.901051 97.458338 104.692717 96.95313 C 103.484384 96.45313 102.296884 95.895838 101.145842 95.276046 C 99.989592 94.661463 98.864592 93.98438 97.77605 93.260421 C 96.687509 92.531255 95.635425 91.750005 94.625008 90.92188 C 93.609383 90.088546 92.640633 89.208338 91.71355 88.286463 C 90.791675 87.359379 89.911467 86.390629 89.078133 85.375004 C 88.250008 84.364588 87.468758 83.312504 86.739591 82.223963 C 86.015633 81.135421 85.33855 80.010421 84.723966 78.854171 C 84.104175 77.697921 83.546883 76.515629 83.046883 75.307296 C 82.541675 74.098962 82.104175 72.864587 81.723966 71.609379 C 81.343758 70.359379 81.02605 69.088545 80.770841 67.802087 C 80.510425 66.520837 80.322925 65.223962 80.192716 63.921878 C 80.062508 62.614587 80.000008 61.312503 80.000008 60.000003 C 80.000008 58.687503 80.062508 57.38542 80.192716 56.078128 C 80.322925 54.776045 80.510425 53.47917 80.770841 52.19792 C 81.02605 50.911461 81.343758 49.640628 81.723966 48.390628 C 82.104175 47.135419 82.541675 45.901044 83.046883 44.692711 C 83.546883 43.484378 84.104175 42.302086 84.723966 41.145836 C 85.33855 39.989586 86.015633 38.864586 86.739591 37.776044 C 87.468758 36.687502 88.250008 35.635419 89.078133 34.625002 C 89.911467 33.609377 90.791675 32.640627 91.71355 31.713544 C 92.640633 30.791669 93.609383 29.91146 94.625008 29.078127 C 95.635425 28.250002 96.687509 27.468752 97.77605 26.739585 C 98.864592 26.015627 99.989592 25.338544 101.145842 24.72396 C 102.296884 24.104169 103.484384 23.546877 104.692717 23.046877 C 105.901051 22.541668 107.135426 22.104168 108.390634 21.72396 C 109.640634 21.343752 110.911467 21.026043 112.197926 20.770835 C 113.479176 20.510418 114.776051 20.322918 116.078134 20.19271 C 117.385426 20.062502 118.687509 20.000002 120.00001 20.000002 C 121.31251 20.000002 122.614593 20.062502 123.921885 20.19271 C 125.223968 20.322918 126.520843 20.510418 127.802093 20.770835 C 129.088552 21.026043 130.359385 21.343752 131.609385 21.72396 C 132.864593 22.104168 134.098968 22.541668 135.307302 23.046877 C 136.515635 23.546877 137.697927 24.104169 138.854177 24.72396 C 140.010427 25.338544 141.135427 26.015627 142.223969 26.739585 C 143.31251 27.468752 144.364594 28.250002 145.375011 29.078127 C 146.390636 29.91146 147.359386 30.791669 148.286469 31.713544 C 149.208344 32.640627 150.088552 33.609377 150.921886 34.625002 C 151.750011 35.635419 152.531261 36.687502 153.260428 37.776044 C 153.984386 38.864586 154.661469 39.989586 155.276053 41.145836 C 155.895844 42.302086 156.453136 43.484378 156.953136 44.692711 C 157.458344 45.901044 157.895844 47.135419 158.276053 48.390628 C 158.656261 49.640628 158.973969 50.911461 159.229178 52.19792 C 159.484386 53.47917 159.677094 54.776045 159.807303 56.078128 C 159.937511 57.38542 160.000011 58.687503 160.000011 60.000003 Z M 160.000011 60.000003 " transform="matrix(0.75, 0, 0, 0.75, 80.999997, 14.999999)"/>
</g>
<path fill-rule="nonzero" fill="rgb(50.19989%, 50.19989%, 50.19989%)" fill-opacity="1" stroke-width="5" stroke-linecap="butt" stroke-linejoin="miter" stroke="rgb(50.19989%, 50.19989%, 50.19989%)" stroke-opacity="1" stroke-miterlimit="4" d="M 200.000013 80.000004 C 200.000013 81.312504 199.937513 82.614588 199.807304 83.921879 C 199.677096 85.223963 199.484388 86.520838 199.229179 87.802088 C 198.973971 89.088546 198.656263 90.35938 198.276054 91.60938 C 197.895846 92.864588 197.458346 94.098963 196.953138 95.307296 C 196.453138 96.51563 195.895846 97.697922 195.276054 98.854172 C 194.661471 100.010422 193.984388 101.135422 193.260429 102.223963 C 192.531263 103.312505 191.750012 104.364589 190.921887 105.375005 C 190.088554 106.39063 189.208346 107.35938 188.286471 108.286464 C 187.359387 109.208339 186.390637 110.088547 185.375012 110.92188 C 184.364596 111.750005 183.312512 112.531256 182.22397 113.260422 C 181.135429 113.984381 180.010429 114.661464 178.854179 115.276047 C 177.697929 115.895839 176.515637 116.453131 175.307303 116.953131 C 174.09897 117.458339 172.864595 117.895839 171.609387 118.276047 C 170.359387 118.656256 169.088553 118.973964 167.802095 119.229172 C 166.520845 119.484381 165.22397 119.677089 163.921886 119.807297 C 162.614595 119.937506 161.312511 120.000006 160.000011 120.000006 C 158.687511 120.000006 157.385428 119.937506 156.078136 119.807297 C 154.776053 119.677089 153.479178 119.484381 152.197928 119.229172 C 150.911469 118.973964 149.640636 118.656256 148.390636 118.276047 C 147.135427 117.895839 145.901052 117.458339 144.692719 116.953131 C 143.484385 116.453131 142.296885 115.895839 141.145844 115.276047 C 139.989594 114.661464 138.864594 113.984381 137.776052 113.260422 C 136.68751 112.531256 135.635427 111.750005 134.62501 110.92188 C 133.609385 110.088547 132.640635 109.208339 131.713552 108.286464 C 130.791677 107.35938 129.911468 106.39063 129.078135 105.375005 C 128.25001 104.364589 127.46876 103.312505 126.739593 102.223963 C 126.015635 101.135422 125.338551 100.010422 124.723968 98.854172 C 124.104176 97.697922 123.546885 96.51563 123.046885 95.307296 C 122.541676 94.098963 122.104176 92.864588 121.723968 91.60938 C 121.34376 90.35938 121.026051 89.088546 120.770843 87.802088 C 120.510426 86.520838 120.322926 85.223963 120.192718 83.921879 C 120.06251 82.614588 120.00001 81.312504 120.00001 80.000004 C 120.00001 78.687504 120.06251 77.385421 120.192718 76.078129 C 120.322926 74.776046 120.510426 73.479171 120.770843 72.197921 C 121.026051 70.911462 121.34376 69.640629 121.723968 68.390629 C 122.104176 67.13542 122.541676 65.901045 123.046885 64.692712 C 123.546885 63.484378 124.104176 62.302087 124.723968 61.145837 C 125.338551 59.989587 126.015635 58.864587 126.739593 57.776045 C 127.46876 56.687503 128.25001 55.63542 129.078135 54.625003 C 129.911468 53.609378 130.791677 52.640628 131.713552 51.713545 C 132.640635 50.79167 133.609385 49.911461 134.62501 49.078128 C 135.635427 48.250003 136.68751 47.468753 137.776052 46.739586 C 138.864594 46.015628 139.989594 45.338544 141.145844 44.723961 C 142.296885 44.104169 143.484385 43.546878 144.692719 43.046878 C 145.901052 42.541669 147.135427 42.104169 148.390636 41.723961 C 149.640636 41.343753 150.911469 41.026044 152.197928 40.770836 C 153.479178 40.510419 154.776053 40.322919 156.078136 40.192711 C 157.385428 40.062503 158.687511 40.000003 160.000011 40.000003 C 161.312511 40.000003 162.614595 40.062503 163.921886 40.192711 C 165.22397 40.322919 166.520845 40.510419 167.802095 40.770836 C 169.088553 41.026044 170.359387 41.343753 171.609387 41.723961 C 172.864595 42.104169 174.09897 42.541669 175.307303 43.046878 C 176.515637 43.546878 177.697929 44.104169 178.854179 44.723961 C 180.010429 45.338544 181.135429 46.015628 182.22397 46.739586 C 183.312512 47.468753 184.364596 48.250003 185.375012 49.078128 C 186.390637 49.911461 187.359387 50.79167 188.286471 51.713545 C 189.208346 52.640628 190.088554 53.609378 190.921887 54.625003 C 191.750012 55.63542 192.531263 56.687503 193.260429 57.776045 C 193.984388 58.864587 194.661471 59.989587 195.276054 61.145837 C 195.895846 62.302087 196.453138 63.484378 196.953138 64.692712 C 197.458346 65.901045 197.895846 67.13542 198.276054 68.390629 C 198.656263 69.640629 198.973971 70.911462 199.229179 72.197921 C 199.484388 73.479171 199.677096 74.776046 199.807304 76.078129 C 199.937513 77.385421 200.000013 78.687504 200.000013 80.000004 Z M 200.000013 80.000004 " transform="matrix(0.75, 0, 0, 0.75, 80.999997, 14.999999)"/>
<path fill-rule="nonzero" fill="rgb(50.19989%, 50.19989%, 50.19989%)" fill-opacity="1" stroke-width="5" stroke-linecap="butt" stroke-linejoin="miter" stroke="rgb(50.19989%, 50.19989%, 50.19989%)" stroke-opacity="1" stroke-miterlimit="4" d="M 135.00001 110.000005 C 135.00001 111.145839 134.942718 112.291672 134.833343 113.432297 C 134.71876 114.572922 134.552093 115.703131 134.328135 116.828131 C 134.104177 117.953131 133.828135 119.062506 133.494802 120.161464 C 133.161468 121.255214 132.776052 122.333339 132.333343 123.395839 C 131.895843 124.453131 131.40626 125.489589 130.869802 126.500006 C 130.328135 127.510423 129.739593 128.48959 129.098968 129.442715 C 128.463552 130.39584 127.78126 131.317715 127.057301 132.203131 C 126.328135 133.088548 125.557301 133.937506 124.75001 134.750006 C 123.93751 135.557298 123.088551 136.328132 122.203135 137.057298 C 121.317718 137.781257 120.395843 138.463548 119.442718 139.098965 C 118.489593 139.73959 117.510426 140.328132 116.500009 140.869798 C 115.489593 141.406257 114.453134 141.89584 113.395843 142.33334 C 112.333343 142.776048 111.255217 143.161465 110.161467 143.494798 C 109.062509 143.828132 107.953134 144.104174 106.828134 144.328132 C 105.703134 144.55209 104.572926 144.718757 103.4323 144.83334 C 102.291675 144.942715 101.145842 145.000007 100.000009 145.000007 C 98.854175 145.000007 97.708342 144.942715 96.567717 144.83334 C 95.427092 144.718757 94.296883 144.55209 93.171883 144.328132 C 92.046883 144.104174 90.937508 143.828132 89.83855 143.494798 C 88.7448 143.161465 87.666675 142.776048 86.604175 142.33334 C 85.546883 141.89584 84.510425 141.406257 83.500008 140.869798 C 82.489591 140.328132 81.510425 139.73959 80.5573 139.098965 C 79.604174 138.463548 78.682299 137.781257 77.796883 137.057298 C 76.911466 136.328132 76.062508 135.557298 75.250008 134.750006 C 74.442716 133.937506 73.671883 133.088548 72.942716 132.203131 C 72.218758 131.317715 71.536466 130.39584 70.901049 129.442715 C 70.260424 128.48959 69.671882 127.510423 69.130216 126.500006 C 68.593757 125.489589 68.104174 124.453131 67.666674 123.395839 C 67.223966 122.333339 66.838549 121.255214 66.505216 120.161464 C 66.171882 119.062506 65.895841 117.953131 65.671882 116.828131 C 65.447924 115.703131 65.281257 114.572922 65.166674 113.432297 C 65.057299 112.291672 65.000007 111.145839 65.000007 110.000005 C 65.000007 108.854172 65.057299 107.708339 65.166674 106.567714 C 65.281257 105.427089 65.447924 104.29688 65.671882 103.17188 C 65.895841 102.04688 66.171882 100.937505 66.505216 99.838547 C 66.838549 98.744797 67.223966 97.666672 67.666674 96.604172 C 68.104174 95.54688 68.593757 94.510421 69.130216 93.500005 C 69.671882 92.489588 70.260424 91.510421 70.901049 90.557296 C 71.536466 89.604171 72.218758 88.682296 72.942716 87.796879 C 73.671883 86.911463 74.442716 86.062504 75.250008 85.250004 C 76.062508 84.442713 76.911466 83.671879 77.796883 82.942713 C 78.682299 82.218754 79.604174 81.536463 80.5573 80.901046 C 81.510425 80.260421 82.489591 79.671879 83.500008 79.130212 C 84.510425 78.593754 85.546883 78.104171 86.604175 77.666671 C 87.666675 77.223962 88.7448 76.838546 89.83855 76.505212 C 90.937508 76.171879 92.046883 75.895837 93.171883 75.671879 C 94.296883 75.447921 95.427092 75.281254 96.567717 75.166671 C 97.708342 75.057296 98.854175 75.000004 100.000009 75.000004 C 101.145842 75.000004 102.291675 75.057296 103.4323 75.166671 C 104.572926 75.281254 105.703134 75.447921 106.828134 75.671879 C 107.953134 75.895837 109.062509 76.171879 110.161467 76.505212 C 111.255217 76.838546 112.333343 77.223962 113.395843 77.666671 C 114.453134 78.104171 115.489593 78.593754 116.500009 79.130212 C 117.510426 79.671879 118.489593 80.260421 119.442718 80.901046 C 120.395843 81.536463 121.317718 82.218754 122.203135 82.942713 C 123.088551 83.671879 123.93751 84.442713 124.75001 85.250004 C 125.557301 86.062504 126.328135 86.911463 127.057301 87.796879 C 127.78126 88.682296 128.463552 89.604171 129.098968 90.557296 C 129.739593 91.510421 130.328135 92.489588 130.869802 93.500005 C 131.40626 94.510421 131.895843 95.54688 132.333343 96.604172 C 132.776052 97.666672 133.161468 98.744797 133.494802 99.838547 C 133.828135 100.937505 134.104177 102.04688 134.328135 103.17188 C 134.552093 104.29688 134.71876 105.427089 134.833343 106.567714 C 134.942718 107.708339 135.00001 108.854172 135.00001 110.000005 Z M 135.00001 110.000005 " transform="matrix(0.75, 0, 0, 0.75, 80.999997, 14.999999)"/>
<path fill-rule="nonzero" fill="rgb(50.19989%, 50.19989%, 50.19989%)" fill-opacity="1" stroke-width="5" stroke-linecap="butt" stroke-linejoin="miter" stroke="rgb(50.19989%, 50.19989%, 50.19989%)" stroke-opacity="1" stroke-miterlimit="4" d="M 175.000012 110.000005 C 175.000012 111.145839 174.94272 112.291672 174.833345 113.432297 C 174.718762 114.572922 174.552095 115.703131 174.328137 116.828131 C 174.104178 117.953131 173.828137 119.062506 173.494803 120.161464 C 173.16147 121.255214 172.776053 122.333339 172.333345 123.395839 C 171.895845 124.453131 171.406262 125.489589 170.869803 126.500006 C 170.328137 127.510423 169.739595 128.48959 169.09897 129.442715 C 168.463553 130.39584 167.781261 131.317715 167.057303 132.203131 C 166.328136 133.088548 165.557303 133.937506 164.750011 134.750006 C 163.937511 135.557298 163.088553 136.328132 162.203136 137.057298 C 161.31772 137.781257 160.395845 138.463548 159.442719 139.098965 C 158.489594 139.73959 157.510428 140.328132 156.500011 140.869798 C 155.489594 141.406257 154.453136 141.89584 153.395844 142.33334 C 152.333344 142.776048 151.255219 143.161465 150.161469 143.494798 C 149.062511 143.828132 147.953136 144.104174 146.828136 144.328132 C 145.703136 144.55209 144.572927 144.718757 143.432302 144.83334 C 142.291677 144.942715 141.145844 145.000007 140.00001 145.000007 C 138.854177 145.000007 137.708344 144.942715 136.567719 144.83334 C 135.427093 144.718757 134.296885 144.55209 133.171885 144.328132 C 132.046885 144.104174 130.93751 143.828132 129.838552 143.494798 C 128.744802 143.161465 127.666676 142.776048 126.604176 142.33334 C 125.546885 141.89584 124.510426 141.406257 123.50001 140.869798 C 122.489593 140.328132 121.510426 139.73959 120.557301 139.098965 C 119.604176 138.463548 118.682301 137.781257 117.796884 137.057298 C 116.911468 136.328132 116.062509 135.557298 115.250009 134.750006 C 114.442718 133.937506 113.671884 133.088548 112.942718 132.203131 C 112.218759 131.317715 111.536467 130.39584 110.901051 129.442715 C 110.260426 128.48959 109.671884 127.510423 109.130217 126.500006 C 108.593759 125.489589 108.104176 124.453131 107.666676 123.395839 C 107.223967 122.333339 106.838551 121.255214 106.505217 120.161464 C 106.171884 119.062506 105.895842 117.953131 105.671884 116.828131 C 105.447926 115.703131 105.281259 114.572922 105.166676 113.432297 C 105.057301 112.291672 105.000009 111.145839 105.000009 110.000005 C 105.000009 108.854172 105.057301 107.708339 105.166676 106.567714 C 105.281259 105.427089 105.447926 104.29688 105.671884 103.17188 C 105.895842 102.04688 106.171884 100.937505 106.505217 99.838547 C 106.838551 98.744797 107.223967 97.666672 107.666676 96.604172 C 108.104176 95.54688 108.593759 94.510421 109.130217 93.500005 C 109.671884 92.489588 110.260426 91.510421 110.901051 90.557296 C 111.536467 89.604171 112.218759 88.682296 112.942718 87.796879 C 113.671884 86.911463 114.442718 86.062504 115.250009 85.250004 C 116.062509 84.442713 116.911468 83.671879 117.796884 82.942713 C 118.682301 82.218754 119.604176 81.536463 120.557301 80.901046 C 121.510426 80.260421 122.489593 79.671879 123.50001 79.130212 C 124.510426 78.593754 125.546885 78.104171 126.604176 77.666671 C 127.666676 77.223962 128.744802 76.838546 129.838552 76.505212 C 130.93751 76.171879 132.046885 75.895837 133.171885 75.671879 C 134.296885 75.447921 135.427093 75.281254 136.567719 75.166671 C 137.708344 75.057296 138.854177 75.000004 140.00001 75.000004 C 141.145844 75.000004 142.291677 75.057296 143.432302 75.166671 C 144.572927 75.281254 145.703136 75.447921 146.828136 75.671879 C 147.953136 75.895837 149.062511 76.171879 150.161469 76.505212 C 151.255219 76.838546 152.333344 77.223962 153.395844 77.666671 C 154.453136 78.104171 155.489594 78.593754 156.500011 79.130212 C 157.510428 79.671879 158.489594 80.260421 159.442719 80.901046 C 160.395845 81.536463 161.31772 82.218754 162.203136 82.942713 C 163.088553 83.671879 163.937511 84.442713 164.750011 85.250004 C 165.557303 86.062504 166.328136 86.911463 167.057303 87.796879 C 167.781261 88.682296 168.463553 89.604171 169.09897 90.557296 C 169.739595 91.510421 170.328137 92.489588 170.869803 93.500005 C 171.406262 94.510421 171.895845 95.54688 172.333345 96.604172 C 172.776053 97.666672 173.16147 98.744797 173.494803 99.838547 C 173.828137 100.937505 174.104178 102.04688 174.328137 103.17188 C 174.552095 104.29688 174.718762 105.427089 174.833345 106.567714 C 174.94272 107.708339 175.000012 108.854172 175.000012 110.000005 Z M 175.000012 110.000005 " transform="matrix(0.75, 0, 0, 0.75, 80.999997, 14.999999)"/>
<path fill-rule="nonzero" fill="rgb(50.19989%, 50.19989%, 50.19989%)" fill-opacity="1" d="M 201 52.5 C 201 53.238281 200.964844 53.972656 200.890625 54.707031 C 200.820312 55.4375 200.710938 56.167969 200.566406 56.890625 C 200.425781 57.613281 200.246094 58.328125 200.03125 59.03125 C 199.816406 59.738281 199.570312 60.429688 199.289062 61.109375 C 199.003906 61.792969 198.691406 62.457031 198.34375 63.105469 C 197.996094 63.757812 197.617188 64.386719 197.207031 65 C 196.796875 65.613281 196.359375 66.203125 195.894531 66.773438 C 195.425781 67.34375 194.929688 67.890625 194.410156 68.410156 C 193.890625 68.929688 193.34375 69.425781 192.773438 69.894531 C 192.203125 70.359375 191.613281 70.796875 191 71.207031 C 190.386719 71.617188 189.757812 71.996094 189.105469 72.34375 C 188.457031 72.691406 187.792969 73.003906 187.109375 73.289062 C 186.429688 73.570312 185.738281 73.816406 185.03125 74.03125 C 184.328125 74.246094 183.613281 74.425781 182.890625 74.566406 C 182.167969 74.710938 181.4375 74.820312 180.707031 74.890625 C 179.972656 74.964844 179.238281 75 178.5 75 C 177.761719 75 177.027344 74.964844 176.292969 74.890625 C 175.5625 74.820312 174.832031 74.710938 174.109375 74.566406 C 173.386719 74.425781 172.671875 74.246094 171.96875 74.03125 C 171.261719 73.816406 170.570312 73.570312 169.890625 73.289062 C 169.207031 73.003906 168.542969 72.691406 167.894531 72.34375 C 167.242188 71.996094 166.613281 71.617188 166 71.207031 C 165.386719 70.796875 164.796875 70.359375 164.226562 69.894531 C 163.65625 69.425781 163.109375 68.929688 162.589844 68.410156 C 162.070312 67.890625 161.574219 67.34375 161.105469 66.773438 C 160.640625 66.203125 160.203125 65.613281 159.792969 65 C 159.382812 64.386719 159.003906 63.757812 158.65625 63.105469 C 158.308594 62.457031 157.996094 61.792969 157.710938 61.109375 C 157.429688 60.429688 157.183594 59.738281 156.96875 59.03125 C 156.753906 58.328125 156.574219 57.613281 156.433594 56.890625 C 156.289062 56.167969 156.179688 55.4375 156.109375 54.707031 C 156.035156 53.972656 156 53.238281 156 52.5 C 156 51.761719 156.035156 51.027344 156.109375 50.292969 C 156.179688 49.5625 156.289062 48.832031 156.433594 48.109375 C 156.574219 47.386719 156.753906 46.671875 156.96875 45.96875 C 157.183594 45.261719 157.429688 44.570312 157.710938 43.890625 C 157.996094 43.207031 158.308594 42.542969 158.65625 41.894531 C 159.003906 41.242188 159.382812 40.613281 159.792969 40 C 160.203125 39.386719 160.640625 38.796875 161.105469 38.226562 C 161.574219 37.65625 162.070312 37.109375 162.589844 36.589844 C 163.109375 36.070312 163.65625 35.574219 164.226562 35.105469 C 164.796875 34.640625 165.386719 34.203125 166 33.792969 C 166.613281 33.382812 167.242188 33.003906 167.894531 32.65625 C 168.542969 32.308594 169.207031 31.996094 169.890625 31.710938 C 170.570312 31.429688 171.261719 31.183594 171.96875 30.96875 C 172.671875 30.753906 173.386719 30.574219 174.109375 30.433594 C 174.832031 30.289062 175.5625 30.179688 176.292969 30.109375 C 177.027344 30.035156 177.761719 30 178.5 30 C 179.238281 30 179.972656 30.035156 180.707031 30.109375 C 181.4375 30.179688 182.167969 30.289062 182.890625 30.433594 C 183.613281 30.574219 184.328125 30.753906 185.03125 30.96875 C 185.738281 31.183594 186.429688 31.429688 187.109375 31.710938 C 187.792969 31.996094 188.457031 32.308594 189.105469 32.65625 C 189.757812 33.003906 190.386719 33.382812 191 33.792969 C 191.613281 34.203125 192.203125 34.640625 192.773438 35.105469 C 193.34375 35.574219 193.890625 36.070312 194.410156 36.589844 C 194.929688 37.109375 195.425781 37.65625 195.894531 38.226562 C 196.359375 38.796875 196.796875 39.386719 197.207031 40 C 197.617188 40.613281 197.996094 41.242188 198.34375 41.894531 C 198.691406 42.542969 199.003906 43.207031 199.289062 43.890625 C 199.570312 44.570312 199.816406 45.261719 200.03125 45.96875 C 200.246094 46.671875 200.425781 47.386719 200.566406 48.109375 C 200.710938 48.832031 200.820312 49.5625 200.890625 50.292969 C 200.964844 51.027344 201 51.761719 201 52.5 Z M 201 52.5 "/>
<g clip-path="url(#clip-1)">
<path fill="none" stroke-width="5" stroke-linecap="butt" stroke-linejoin="miter" stroke="rgb(50.19989%, 50.19989%, 50.19989%)" stroke-opacity="1" stroke-miterlimit="4" d="M 160.000011 50.000003 C 160.000011 50.984378 159.953136 51.963545 159.854178 52.942711 C 159.760428 53.91667 159.614594 54.890628 159.421886 55.85417 C 159.234386 56.817712 158.994803 57.770837 158.708344 58.708337 C 158.421886 59.651045 158.093761 60.57292 157.718761 61.47917 C 157.338553 62.390628 156.921886 63.276045 156.458344 64.140629 C 155.994803 65.01042 155.489594 65.848962 154.942719 66.66667 C 154.395844 67.484379 153.812511 68.270837 153.192719 69.031254 C 152.567719 69.79167 151.906261 70.520837 151.213552 71.213545 C 150.520844 71.906254 149.791677 72.567712 149.031261 73.192712 C 148.270844 73.812504 147.484386 74.395837 146.666677 74.942712 C 145.848969 75.489587 145.010427 75.994796 144.140636 76.458337 C 143.276052 76.921879 142.390635 77.338546 141.479177 77.718754 C 140.572927 78.093754 139.651052 78.421879 138.708344 78.708337 C 137.770844 78.994796 136.817719 79.234379 135.854177 79.421879 C 134.890635 79.614587 133.916677 79.760421 132.942718 79.854171 C 131.963552 79.953129 130.984385 80.000004 130.00001 80.000004 C 129.015635 80.000004 128.036468 79.953129 127.057301 79.854171 C 126.083343 79.760421 125.109385 79.614587 124.145843 79.421879 C 123.182301 79.234379 122.229176 78.994796 121.291676 78.708337 C 120.348968 78.421879 119.427093 78.093754 118.520843 77.718754 C 117.609384 77.338546 116.723968 76.921879 115.859384 76.458337 C 114.989593 75.994796 114.151051 75.489587 113.333343 74.942712 C 112.515634 74.395837 111.729176 73.812504 110.968759 73.192712 C 110.208342 72.567712 109.479176 71.906254 108.786467 71.213545 C 108.093759 70.520837 107.432301 69.79167 106.807301 69.031254 C 106.187509 68.270837 105.604176 67.484379 105.057301 66.66667 C 104.510426 65.848962 104.005217 65.01042 103.541675 64.140629 C 103.078134 63.276045 102.661467 62.390628 102.281259 61.47917 C 101.906259 60.57292 101.578134 59.651045 101.291675 58.708337 C 101.005217 57.770837 100.765634 56.817712 100.578134 55.85417 C 100.385425 54.890628 100.239592 53.91667 100.145842 52.942711 C 100.046884 51.963545 100.000009 50.984378 100.000009 50.000003 C 100.000009 49.015628 100.046884 48.036461 100.145842 47.057294 C 100.239592 46.083336 100.385425 45.109378 100.578134 44.145836 C 100.765634 43.182294 101.005217 42.229169 101.291675 41.291669 C 101.578134 40.348961 101.906259 39.427086 102.281259 38.520836 C 102.661467 37.609377 103.078134 36.723961 103.541675 35.859377 C 104.005217 34.989586 104.510426 34.151044 105.057301 33.333336 C 105.604176 32.515627 106.187509 31.729169 106.807301 30.968752 C 107.432301 30.208335 108.093759 29.479169 108.786467 28.78646 C 109.479176 28.093752 110.208342 27.432294 110.968759 26.807294 C 111.729176 26.187502 112.515634 25.604169 113.333343 25.057294 C 114.151051 24.510419 114.989593 24.00521 115.859384 23.541668 C 116.723968 23.078127 117.609384 22.66146 118.520843 22.281252 C 119.427093 21.906252 120.348968 21.578127 121.291676 21.291668 C 122.229176 21.00521 123.182301 20.765627 124.145843 20.578127 C 125.109385 20.385418 126.083343 20.239585 127.057301 20.145835 C 128.036468 20.046877 129.015635 20.000002 130.00001 20.000002 C 130.984385 20.000002 131.963552 20.046877 132.942718 20.145835 C 133.916677 20.239585 134.890635 20.385418 135.854177 20.578127 C 136.817719 20.765627 137.770844 21.00521 138.708344 21.291668 C 139.651052 21.578127 140.572927 21.906252 141.479177 22.281252 C 142.390635 22.66146 143.276052 23.078127 144.140636 23.541668 C 145.010427 24.00521 145.848969 24.510419 146.666677 25.057294 C 147.484386 25.604169 148.270844 26.187502 149.031261 26.807294 C 149.791677 27.432294 150.520844 28.093752 151.213552 28.78646 C 151.906261 29.479169 152.567719 30.208335 153.192719 30.968752 C 153.812511 31.729169 154.395844 32.515627 154.942719 33.333336 C 155.489594 34.151044 155.994803 34.989586 156.458344 35.859377 C 156.921886 36.723961 157.338553 37.609377 157.718761 38.520836 C 158.093761 39.427086 158.421886 40.348961 158.708344 41.291669 C 158.994803 42.229169 159.234386 43.182294 159.421886 44.145836 C 159.614594 45.109378 159.760428 46.083336 159.854178 47.057294 C 159.953136 48.036461 160.000011 49.015628 160.000011 50.000003 Z M 160.000011 50.000003 " transform="matrix(0.75, 0, 0, 0.75, 80.999997, 14.999999)"/>
</g>
<path fill-rule="nonzero" fill="rgb(50.19989%, 50.19989%, 50.19989%)" fill-opacity="1" d="M 216 52.5 C 216 53.238281 215.964844 53.972656 215.890625 54.707031 C 215.820312 55.4375 215.710938 56.167969 215.566406 56.890625 C 215.425781 57.613281 215.246094 58.328125 215.03125 59.03125 C 214.816406 59.738281 214.570312 60.429688 214.289062 61.109375 C 214.003906 61.792969 213.691406 62.457031 213.34375 63.105469 C 212.996094 63.757812 212.617188 64.386719 212.207031 65 C 211.796875 65.613281 211.359375 66.203125 210.894531 66.773438 C 210.425781 67.34375 209.929688 67.890625 209.410156 68.410156 C 208.890625 68.929688 208.34375 69.425781 207.773438 69.894531 C 207.203125 70.359375 206.613281 70.796875 206 71.207031 C 205.386719 71.617188 204.757812 71.996094 204.105469 72.34375 C 203.457031 72.691406 202.792969 73.003906 202.109375 73.289062 C 201.429688 73.570312 200.738281 73.816406 200.03125 74.03125 C 199.328125 74.246094 198.613281 74.425781 197.890625 74.566406 C 197.167969 74.710938 196.4375 74.820312 195.707031 74.890625 C 194.972656 74.964844 194.238281 75 193.5 75 C 192.761719 75 192.027344 74.964844 191.292969 74.890625 C 190.5625 74.820312 189.832031 74.710938 189.109375 74.566406 C 188.386719 74.425781 187.671875 74.246094 186.96875 74.03125 C 186.261719 73.816406 185.570312 73.570312 184.890625 73.289062 C 184.207031 73.003906 183.542969 72.691406 182.894531 72.34375 C 182.242188 71.996094 181.613281 71.617188 181 71.207031 C 180.386719 70.796875 179.796875 70.359375 179.226562 69.894531 C 178.65625 69.425781 178.109375 68.929688 177.589844 68.410156 C 177.070312 67.890625 176.574219 67.34375 176.105469 66.773438 C 175.640625 66.203125 175.203125 65.613281 174.792969 65 C 174.382812 64.386719 174.003906 63.757812 173.65625 63.105469 C 173.308594 62.457031 172.996094 61.792969 172.710938 61.109375 C 172.429688 60.429688 172.183594 59.738281 171.96875 59.03125 C 171.753906 58.328125 171.574219 57.613281 171.433594 56.890625 C 171.289062 56.167969 171.179688 55.4375 171.109375 54.707031 C 171.035156 53.972656 171 53.238281 171 52.5 C 171 51.761719 171.035156 51.027344 171.109375 50.292969 C 171.179688 49.5625 171.289062 48.832031 171.433594 48.109375 C 171.574219 47.386719 171.753906 46.671875 171.96875 45.96875 C 172.183594 45.261719 172.429688 44.570312 172.710938 43.890625 C 172.996094 43.207031 173.308594 42.542969 173.65625 41.894531 C 174.003906 41.242188 174.382812 40.613281 174.792969 40 C 175.203125 39.386719 175.640625 38.796875 176.105469 38.226562 C 176.574219 37.65625 177.070312 37.109375 177.589844 36.589844 C 178.109375 36.070312 178.65625 35.574219 179.226562 35.105469 C 179.796875 34.640625 180.386719 34.203125 181 33.792969 C 181.613281 33.382812 182.242188 33.003906 182.894531 32.65625 C 183.542969 32.308594 184.207031 31.996094 184.890625 31.710938 C 185.570312 31.429688 186.261719 31.183594 186.96875 30.96875 C 187.671875 30.753906 188.386719 30.574219 189.109375 30.433594 C 189.832031 30.289062 190.5625 30.179688 191.292969 30.109375 C 192.027344 30.035156 192.761719 30 193.5 30 C 194.238281 30 194.972656 30.035156 195.707031 30.109375 C 196.4375 30.179688 197.167969 30.289062 197.890625 30.433594 C 198.613281 30.574219 199.328125 30.753906 200.03125 30.96875 C 200.738281 31.183594 201.429688 31.429688 202.109375 31.710938 C 202.792969 31.996094 203.457031 32.308594 204.105469 32.65625 C 204.757812 33.003906 205.386719 33.382812 206 33.792969 C 206.613281 34.203125 207.203125 34.640625 207.773438 35.105469 C 208.34375 35.574219 208.890625 36.070312 209.410156 36.589844 C 209.929688 37.109375 210.425781 37.65625 210.894531 38.226562 C 211.359375 38.796875 211.796875 39.386719 212.207031 40 C 212.617188 40.613281 212.996094 41.242188 213.34375 41.894531 C 213.691406 42.542969 214.003906 43.207031 214.289062 43.890625 C 214.570312 44.570312 214.816406 45.261719 215.03125 45.96875 C 215.246094 46.671875 215.425781 47.386719 215.566406 48.109375 C 215.710938 48.832031 215.820312 49.5625 215.890625 50.292969 C 215.964844 51.027344 216 51.761719 216 52.5 Z M 216 52.5 "/>
<g clip-path="url(#clip-2)">
<path fill="none" stroke-width="5" stroke-linecap="butt" stroke-linejoin="miter" stroke="rgb(50.19989%, 50.19989%, 50.19989%)" stroke-opacity="1" stroke-miterlimit="4" d="M 180.000012 50.000003 C 180.000012 50.984378 179.953137 51.963545 179.854179 52.942711 C 179.760429 53.91667 179.614595 54.890628 179.421887 55.85417 C 179.234387 56.817712 178.994804 57.770837 178.708345 58.708337 C 178.421887 59.651045 178.093762 60.57292 177.718762 61.47917 C 177.338554 62.390628 176.921887 63.276045 176.458345 64.140629 C 175.994803 65.01042 175.489595 65.848962 174.94272 66.66667 C 174.395845 67.484379 173.812512 68.270837 173.19272 69.031254 C 172.56772 69.79167 171.906262 70.520837 171.213553 71.213545 C 170.520845 71.906254 169.791678 72.567712 169.031262 73.192712 C 168.270845 73.812504 167.484386 74.395837 166.666678 74.942712 C 165.84897 75.489587 165.010428 75.994796 164.140636 76.458337 C 163.276053 76.921879 162.390636 77.338546 161.479178 77.718754 C 160.572928 78.093754 159.651053 78.421879 158.708344 78.708337 C 157.770844 78.994796 156.817719 79.234379 155.854178 79.421879 C 154.890636 79.614587 153.916678 79.760421 152.942719 79.854171 C 151.963552 79.953129 150.984386 80.000004 150.000011 80.000004 C 149.015636 80.000004 148.036469 79.953129 147.057302 79.854171 C 146.083344 79.760421 145.109386 79.614587 144.145844 79.421879 C 143.182302 79.234379 142.229177 78.994796 141.291677 78.708337 C 140.348969 78.421879 139.427094 78.093754 138.520844 77.718754 C 137.609385 77.338546 136.723969 76.921879 135.859385 76.458337 C 134.989593 75.994796 134.151052 75.489587 133.333343 74.942712 C 132.515635 74.395837 131.729177 73.812504 130.96876 73.192712 C 130.208343 72.567712 129.479177 71.906254 128.786468 71.213545 C 128.09376 70.520837 127.432301 69.79167 126.807301 69.031254 C 126.18751 68.270837 125.604176 67.484379 125.057301 66.66667 C 124.510426 65.848962 124.005218 65.01042 123.541676 64.140629 C 123.078135 63.276045 122.661468 62.390628 122.28126 61.47917 C 121.90626 60.57292 121.578135 59.651045 121.291676 58.708337 C 121.005218 57.770837 120.765635 56.817712 120.578135 55.85417 C 120.385426 54.890628 120.239593 53.91667 120.145843 52.942711 C 120.046885 51.963545 120.00001 50.984378 120.00001 50.000003 C 120.00001 49.015628 120.046885 48.036461 120.145843 47.057294 C 120.239593 46.083336 120.385426 45.109378 120.578135 44.145836 C 120.765635 43.182294 121.005218 42.229169 121.291676 41.291669 C 121.578135 40.348961 121.90626 39.427086 122.28126 38.520836 C 122.661468 37.609377 123.078135 36.723961 123.541676 35.859377 C 124.005218 34.989586 124.510426 34.151044 125.057301 33.333336 C 125.604176 32.515627 126.18751 31.729169 126.807301 30.968752 C 127.432301 30.208335 128.09376 29.479169 128.786468 28.78646 C 129.479177 28.093752 130.208343 27.432294 130.96876 26.807294 C 131.729177 26.187502 132.515635 25.604169 133.333343 25.057294 C 134.151052 24.510419 134.989593 24.00521 135.859385 23.541668 C 136.723969 23.078127 137.609385 22.66146 138.520844 22.281252 C 139.427094 21.906252 140.348969 21.578127 141.291677 21.291668 C 142.229177 21.00521 143.182302 20.765627 144.145844 20.578127 C 145.109386 20.385418 146.083344 20.239585 147.057302 20.145835 C 148.036469 20.046877 149.015636 20.000002 150.000011 20.000002 C 150.984386 20.000002 151.963552 20.046877 152.942719 20.145835 C 153.916678 20.239585 154.890636 20.385418 155.854178 20.578127 C 156.817719 20.765627 157.770844 21.00521 158.708344 21.291668 C 159.651053 21.578127 160.572928 21.906252 161.479178 22.281252 C 162.390636 22.66146 163.276053 23.078127 164.140636 23.541668 C 165.010428 24.00521 165.84897 24.510419 166.666678 25.057294 C 167.484386 25.604169 168.270845 26.187502 169.031262 26.807294 C 169.791678 27.432294 170.520845 28.093752 171.213553 28.78646 C 171.906262 29.479169 172.56772 30.208335 173.19272 30.968752 C 173.812512 31.729169 174.395845 32.515627 174.94272 33.333336 C 175.489595 34.151044 175.994803 34.989586 176.458345 35.859377 C 176.921887 36.723961 177.338554 37.609377 177.718762 38.520836 C 178.093762 39.427086 178.421887 40.348961 178.708345 41.291669 C 178.994804 42.229169 179.234387 43.182294 179.421887 44.145836 C 179.614595 45.109378 179.760429 46.083336 179.854179 47.057294 C 179.953137 48.036461 180.000012 49.015628 180.000012 50.000003 Z M 180.000012 50.000003 " transform="matrix(0.75, 0, 0, 0.75, 80.999997, 14.999999)"/>
</g>
<path fill-rule="nonzero" fill="rgb(50.19989%, 50.19989%, 50.19989%)" fill-opacity="1" stroke-width="5" stroke-linecap="butt" stroke-linejoin="miter" stroke="rgb(50.19989%, 50.19989%, 50.19989%)" stroke-opacity="1" stroke-miterlimit="4" d="M 440.000023 80.000004 C 440.000023 81.312504 439.937523 82.614588 439.807314 83.921879 C 439.677106 85.223963 439.484398 86.520838 439.229189 87.802088 C 438.973981 89.088546 438.656273 90.35938 438.276064 91.60938 C 437.895856 92.864588 437.458356 94.098963 436.953148 95.307296 C 436.453148 96.51563 435.895856 97.697922 435.276064 98.854172 C 434.661481 100.010422 433.984398 101.135422 433.260439 102.223963 C 432.531273 103.312505 431.750022 104.364589 430.921897 105.375005 C 430.088564 106.39063 429.208356 107.35938 428.286481 108.286464 C 427.359397 109.208339 426.390647 110.088547 425.375022 110.92188 C 424.364606 111.750005 423.312522 112.531256 422.22398 113.260422 C 421.135439 113.984381 420.010439 114.661464 418.854189 115.276047 C 417.697939 115.895839 416.515647 116.453131 415.307313 116.953131 C 414.09898 117.458339 412.864605 117.895839 411.609397 118.276047 C 410.359397 118.656256 409.088563 118.973964 407.802105 119.229172 C 406.520855 119.484381 405.22398 119.677089 403.921896 119.807297 C 402.614605 119.937506 401.312521 120.000006 400.000021 120.000006 C 398.687521 120.000006 397.385438 119.937506 396.078146 119.807297 C 394.776063 119.677089 393.479188 119.484381 392.197938 119.229172 C 390.911479 118.973964 389.640646 118.656256 388.390646 118.276047 C 387.135437 117.895839 385.901062 117.458339 384.692729 116.953131 C 383.484395 116.453131 382.302104 115.895839 381.145854 115.276047 C 379.989604 114.661464 378.864604 113.984381 377.776062 113.260422 C 376.68752 112.531256 375.635437 111.750005 374.62502 110.92188 C 373.609395 110.088547 372.640645 109.208339 371.713562 108.286464 C 370.791687 107.35938 369.911478 106.39063 369.078145 105.375005 C 368.25002 104.364589 367.46877 103.312505 366.739603 102.223963 C 366.015645 101.135422 365.338561 100.010422 364.723978 98.854172 C 364.104186 97.697922 363.546895 96.51563 363.046895 95.307296 C 362.541686 94.098963 362.104186 92.864588 361.723978 91.60938 C 361.34377 90.35938 361.026061 89.088546 360.770853 87.802088 C 360.510436 86.520838 360.322936 85.223963 360.192728 83.921879 C 360.06252 82.614588 360.00002 81.312504 360.00002 80.000004 C 360.00002 78.687504 360.06252 77.385421 360.192728 76.078129 C 360.322936 74.776046 360.510436 73.479171 360.770853 72.197921 C 361.026061 70.911462 361.34377 69.640629 361.723978 68.390629 C 362.104186 67.13542 362.541686 65.901045 363.046895 64.692712 C 363.546895 63.484378 364.104186 62.302087 364.723978 61.145837 C 365.338561 59.989587 366.015645 58.864587 366.739603 57.776045 C 367.46877 56.687503 368.25002 55.63542 369.078145 54.625003 C 369.911478 53.609378 370.791687 52.640628 371.713562 51.713545 C 372.640645 50.79167 373.609395 49.911461 374.62502 49.078128 C 375.635437 48.250003 376.68752 47.468753 377.776062 46.739586 C 378.864604 46.015628 379.989604 45.338544 381.145854 44.723961 C 382.302104 44.104169 383.484395 43.546878 384.692729 43.046878 C 385.901062 42.541669 387.135437 42.104169 388.390646 41.723961 C 389.640646 41.343753 390.911479 41.026044 392.197938 40.770836 C 393.479188 40.510419 394.776063 40.322919 396.078146 40.192711 C 397.385438 40.062503 398.687521 40.000003 400.000021 40.000003 C 401.312521 40.000003 402.614605 40.062503 403.921896 40.192711 C 405.22398 40.322919 406.520855 40.510419 407.802105 40.770836 C 409.088563 41.026044 410.359397 41.343753 411.609397 41.723961 C 412.864605 42.104169 414.09898 42.541669 415.307313 43.046878 C 416.515647 43.546878 417.697939 44.104169 418.854189 44.723961 C 420.010439 45.338544 421.135439 46.015628 422.22398 46.739586 C 423.312522 47.468753 424.364606 48.250003 425.375022 49.078128 C 426.390647 49.911461 427.359397 50.79167 428.286481 51.713545 C 429.208356 52.640628 430.088564 53.609378 430.921897 54.625003 C 431.750022 55.63542 432.531273 56.687503 433.260439 57.776045 C 433.984398 58.864587 434.661481 59.989587 435.276064 61.145837 C 435.895856 62.302087 436.453148 63.484378 436.953148 64.692712 C 437.458356 65.901045 437.895856 67.13542 438.276064 68.390629 C 438.656273 69.640629 438.973981 70.911462 439.229189 72.197921 C 439.484398 73.479171 439.677106 74.776046 439.807314 76.078129 C 439.937523 77.385421 440.000023 78.687504 440.000023 80.000004 Z M 440.000023 80.000004 " transform="matrix(0.75, 0, 0, 0.75, 80.999997, 14.999999)"/>
<path fill-rule="nonzero" fill="rgb(50.19989%, 50.19989%, 50.19989%)" fill-opacity="1" d="M 441 60 C 441 60.984375 440.953125 61.960938 440.855469 62.941406 C 440.757812 63.917969 440.613281 64.890625 440.421875 65.851562 C 440.230469 66.816406 439.992188 67.769531 439.707031 68.707031 C 439.421875 69.648438 439.09375 70.574219 438.714844 71.480469 C 438.339844 72.386719 437.921875 73.273438 437.457031 74.140625 C 436.996094 75.007812 436.488281 75.851562 435.945312 76.667969 C 435.398438 77.484375 434.8125 78.273438 434.191406 79.03125 C 433.566406 79.792969 432.90625 80.519531 432.214844 81.214844 C 431.519531 81.90625 430.792969 82.566406 430.03125 83.191406 C 429.273438 83.8125 428.484375 84.398438 427.667969 84.945312 C 426.851562 85.488281 426.007812 85.996094 425.140625 86.457031 C 424.273438 86.921875 423.386719 87.339844 422.480469 87.714844 C 421.574219 88.09375 420.648438 88.421875 419.707031 88.707031 C 418.769531 88.992188 417.816406 89.230469 416.851562 89.421875 C 415.890625 89.613281 414.917969 89.757812 413.941406 89.855469 C 412.960938 89.953125 411.984375 90 411 90 C 410.015625 90 409.039062 89.953125 408.058594 89.855469 C 407.082031 89.757812 406.109375 89.613281 405.148438 89.421875 C 404.183594 89.230469 403.230469 88.992188 402.292969 88.707031 C 401.351562 88.421875 400.425781 88.09375 399.519531 87.714844 C 398.613281 87.339844 397.722656 86.921875 396.859375 86.457031 C 395.992188 85.996094 395.148438 85.488281 394.332031 84.945312 C 393.515625 84.398438 392.726562 83.8125 391.96875 83.191406 C 391.207031 82.566406 390.480469 81.90625 389.785156 81.214844 C 389.09375 80.519531 388.433594 79.792969 387.808594 79.03125 C 387.1875 78.273438 386.601562 77.484375 386.054688 76.667969 C 385.511719 75.851562 385.003906 75.007812 384.542969 74.140625 C 384.078125 73.273438 383.660156 72.386719 383.285156 71.480469 C 382.90625 70.574219 382.578125 69.648438 382.292969 68.707031 C 382.007812 67.769531 381.769531 66.816406 381.578125 65.851562 C 381.382812 64.890625 381.242188 63.917969 381.144531 62.941406 C 381.046875 61.960938 381 60.984375 381 60 C 381 59.015625 381.046875 58.039062 381.144531 57.058594 C 381.242188 56.082031 381.382812 55.109375 381.578125 54.148438 C 381.769531 53.183594 382.007812 52.230469 382.292969 51.292969 C 382.578125 50.351562 382.90625 49.425781 383.285156 48.519531 C 383.660156 47.613281 384.078125 46.726562 384.542969 45.859375 C 385.003906 44.992188 385.511719 44.148438 386.054688 43.332031 C 386.601562 42.515625 387.1875 41.726562 387.808594 40.96875 C 388.433594 40.207031 389.09375 39.480469 389.785156 38.785156 C 390.480469 38.09375 391.207031 37.433594 391.96875 36.808594 C 392.726562 36.1875 393.515625 35.601562 394.332031 35.054688 C 395.148438 34.511719 395.992188 34.003906 396.859375 33.542969 C 397.722656 33.078125 398.613281 32.660156 399.519531 32.285156 C 400.425781 31.90625 401.351562 31.578125 402.292969 31.292969 C 403.230469 31.007812 404.183594 30.769531 405.148438 30.578125 C 406.109375 30.382812 407.082031 30.242188 408.058594 30.144531 C 409.039062 30.046875 410.015625 30 411 30 C 411.984375 30 412.960938 30.046875 413.941406 30.144531 C 414.917969 30.242188 415.890625 30.382812 416.851562 30.578125 C 417.816406 30.769531 418.769531 31.007812 419.707031 31.292969 C 420.648438 31.578125 421.574219 31.90625 422.480469 32.285156 C 423.386719 32.660156 424.273438 33.078125 425.140625 33.542969 C 426.007812 34.003906 426.851562 34.511719 427.667969 35.054688 C 428.484375 35.601562 429.273438 36.1875 430.03125 36.808594 C 430.792969 37.433594 431.519531 38.09375 432.214844 38.785156 C 432.90625 39.480469 433.566406 40.207031 434.191406 40.96875 C 434.8125 41.726562 435.398438 42.515625 435.945312 43.332031 C 436.488281 44.148438 436.996094 44.992188 437.457031 45.859375 C 437.921875 46.726562 438.339844 47.613281 438.714844 48.519531 C 439.09375 49.425781 439.421875 50.351562 439.707031 51.292969 C 439.992188 52.230469 440.230469 53.183594 440.421875 54.148438 C 440.613281 55.109375 440.757812 56.082031 440.855469 57.058594 C 440.953125 58.039062 441 59.015625 441 60 Z M 441 60 "/>
<g clip-path="url(#clip-3)">
<path fill="none" stroke-width="5" stroke-linecap="butt" stroke-linejoin="miter" stroke="rgb(50.19989%, 50.19989%, 50.19989%)" stroke-opacity="1" stroke-miterlimit="4" d="M 480.000025 60.000003 C 480.000025 61.312503 479.937524 62.614587 479.807316 63.921878 C 479.677108 65.223962 479.484399 66.520837 479.229191 67.802087 C 478.973983 69.088545 478.656274 70.359379 478.276066 71.609379 C 477.895858 72.864587 477.458358 74.098962 476.953149 75.307296 C 476.453149 76.515629 475.895858 77.697921 475.276066 78.854171 C 474.661483 80.010421 473.984399 81.135421 473.260441 82.223963 C 472.531274 83.312504 471.750024 84.364588 470.921899 85.375004 C 470.088566 86.390629 469.208357 87.359379 468.286482 88.286463 C 467.359399 89.208338 466.390649 90.088546 465.375024 90.92188 C 464.364607 91.750005 463.312524 92.531255 462.223982 93.260421 C 461.13544 93.98438 460.01044 94.661463 458.85419 95.276046 C 457.69794 95.895838 456.515649 96.45313 455.307315 96.95313 C 454.098982 97.458338 452.864607 97.895838 451.609398 98.276047 C 450.359398 98.656255 449.088565 98.973963 447.802106 99.229172 C 446.520856 99.48438 445.223981 99.677088 443.921898 99.807297 C 442.614606 99.937505 441.312523 100.000005 440.000023 100.000005 C 438.687523 100.000005 437.385439 99.937505 436.078148 99.807297 C 434.776064 99.677088 433.479189 99.48438 432.197939 99.229172 C 430.911481 98.973963 429.640647 98.656255 428.390647 98.276047 C 427.135439 97.895838 425.901064 97.458338 424.692731 96.95313 C 423.484397 96.45313 422.296897 95.895838 421.145855 95.276046 C 419.989605 94.661463 418.864605 93.98438 417.776064 93.260421 C 416.687522 92.531255 415.635438 91.750005 414.625022 90.92188 C 413.609397 90.088546 412.640647 89.208338 411.713563 88.286463 C 410.791688 87.359379 409.91148 86.390629 409.078147 85.375004 C 408.250022 84.364588 407.468771 83.312504 406.739605 82.223963 C 406.015646 81.135421 405.338563 80.010421 404.72398 78.854171 C 404.104188 77.697921 403.546896 76.515629 403.046896 75.307296 C 402.541688 74.098962 402.104188 72.864587 401.72398 71.609379 C 401.343771 70.359379 401.026063 69.088545 400.770855 67.802087 C 400.510438 66.520837 400.322938 65.223962 400.19273 63.921878 C 400.062521 62.614587 400.000021 61.312503 400.000021 60.000003 C 400.000021 58.687503 400.062521 57.38542 400.19273 56.078128 C 400.322938 54.776045 400.510438 53.47917 400.770855 52.19792 C 401.026063 50.911461 401.343771 49.640628 401.72398 48.390628 C 402.104188 47.135419 402.541688 45.901044 403.046896 44.692711 C 403.546896 43.484378 404.104188 42.302086 404.72398 41.145836 C 405.338563 39.989586 406.015646 38.864586 406.739605 37.776044 C 407.468771 36.687502 408.250022 35.635419 409.078147 34.625002 C 409.91148 33.609377 410.791688 32.640627 411.713563 31.713544 C 412.640647 30.791669 413.609397 29.91146 414.625022 29.078127 C 415.635438 28.250002 416.687522 27.468752 417.776064 26.739585 C 418.864605 26.015627 419.989605 25.338544 421.145855 24.72396 C 422.296897 24.104169 423.484397 23.546877 424.692731 23.046877 C 425.901064 22.541668 427.135439 22.104168 428.390647 21.72396 C 429.640647 21.343752 430.911481 21.026043 432.197939 20.770835 C 433.479189 20.510418 434.776064 20.322918 436.078148 20.19271 C 437.385439 20.062502 438.687523 20.000002 440.000023 20.000002 C 441.312523 20.000002 442.614606 20.062502 443.921898 20.19271 C 445.223981 20.322918 446.520856 20.510418 447.802106 20.770835 C 449.088565 21.026043 450.359398 21.343752 451.609398 21.72396 C 452.864607 22.104168 454.098982 22.541668 455.307315 23.046877 C 456.515649 23.546877 457.69794 24.104169 458.85419 24.72396 C 460.01044 25.338544 461.13544 26.015627 462.223982 26.739585 C 463.312524 27.468752 464.364607 28.250002 465.375024 29.078127 C 466.390649 29.91146 467.359399 30.791669 468.286482 31.713544 C 469.208357 32.640627 470.088566 33.609377 470.921899 34.625002 C 471.750024 35.635419 472.531274 36.687502 473.260441 37.776044 C 473.984399 38.864586 474.661483 39.989586 475.276066 41.145836 C 475.895858 42.302086 476.453149 43.484378 476.953149 44.692711 C 477.458358 45.901044 477.895858 47.135419 478.276066 48.390628 C 478.656274 49.640628 478.973983 50.911461 479.229191 52.19792 C 479.484399 53.47917 479.677108 54.776045 479.807316 56.078128 C 479.937524 57.38542 480.000025 58.687503 480.000025 60.000003 Z M 480.000025 60.000003 " transform="matrix(0.75, 0, 0, 0.75, 80.999997, 14.999999)"/>
</g>
<path fill-rule="nonzero" fill="rgb(50.19989%, 50.19989%, 50.19989%)" fill-opacity="1" stroke-width="5" stroke-linecap="butt" stroke-linejoin="miter" stroke="rgb(50.19989%, 50.19989%, 50.19989%)" stroke-opacity="1" stroke-miterlimit="4" d="M 520.000026 80.000004 C 520.000026 81.312504 519.937526 82.614588 519.807318 83.921879 C 519.677109 85.223963 519.484401 86.520838 519.229193 87.802088 C 518.973984 89.088546 518.656276 90.35938 518.276068 91.60938 C 517.895859 92.864588 517.458359 94.098963 516.953151 95.307296 C 516.453151 96.51563 515.895859 97.697922 515.276068 98.854172 C 514.661484 100.010422 513.984401 101.135422 513.260443 102.223963 C 512.531276 103.312505 511.750026 104.364589 510.921901 105.375005 C 510.088567 106.39063 509.208359 107.35938 508.286484 108.286464 C 507.359401 109.208339 506.390651 110.088547 505.375026 110.92188 C 504.364609 111.750005 503.312525 112.531256 502.223984 113.260422 C 501.135442 113.984381 500.010442 114.661464 498.854192 115.276047 C 497.697942 115.895839 496.51565 116.453131 495.307317 116.953131 C 494.098983 117.458339 492.864608 117.895839 491.6094 118.276047 C 490.3594 118.656256 489.088567 118.973964 487.802108 119.229172 C 486.520858 119.484381 485.223983 119.677089 483.9219 119.807297 C 482.614608 119.937506 481.312525 120.000006 480.000025 120.000006 C 478.687524 120.000006 477.385441 119.937506 476.078149 119.807297 C 474.776066 119.677089 473.479191 119.484381 472.197941 119.229172 C 470.911482 118.973964 469.640649 118.656256 468.390649 118.276047 C 467.135441 117.895839 465.901066 117.458339 464.692732 116.953131 C 463.484399 116.453131 462.296899 115.895839 461.145857 115.276047 C 459.989607 114.661464 458.864607 113.984381 457.776065 113.260422 C 456.687524 112.531256 455.63544 111.750005 454.625023 110.92188 C 453.609398 110.088547 452.640648 109.208339 451.713565 108.286464 C 450.79169 107.35938 449.911482 106.39063 449.078148 105.375005 C 448.250023 104.364589 447.468773 103.312505 446.739606 102.223963 C 446.015648 101.135422 445.338565 100.010422 444.723981 98.854172 C 444.10419 97.697922 443.546898 96.51563 443.046898 95.307296 C 442.54169 94.098963 442.10419 92.864588 441.723981 91.60938 C 441.343773 90.35938 441.026065 89.088546 440.770856 87.802088 C 440.51044 86.520838 440.32294 85.223963 440.192731 83.921879 C 440.062523 82.614588 440.000023 81.312504 440.000023 80.000004 C 440.000023 78.687504 440.062523 77.385421 440.192731 76.078129 C 440.32294 74.776046 440.51044 73.479171 440.770856 72.197921 C 441.026065 70.911462 441.343773 69.640629 441.723981 68.390629 C 442.10419 67.13542 442.54169 65.901045 443.046898 64.692712 C 443.546898 63.484378 444.10419 62.302087 444.723981 61.145837 C 445.338565 59.989587 446.015648 58.864587 446.739606 57.776045 C 447.468773 56.687503 448.250023 55.63542 449.078148 54.625003 C 449.911482 53.609378 450.79169 52.640628 451.713565 51.713545 C 452.640648 50.79167 453.609398 49.911461 454.625023 49.078128 C 455.63544 48.250003 456.687524 47.468753 457.776065 46.739586 C 458.864607 46.015628 459.989607 45.338544 461.145857 44.723961 C 462.296899 44.104169 463.484399 43.546878 464.692732 43.046878 C 465.901066 42.541669 467.135441 42.104169 468.390649 41.723961 C 469.640649 41.343753 470.911482 41.026044 472.197941 40.770836 C 473.479191 40.510419 474.776066 40.322919 476.078149 40.192711 C 477.385441 40.062503 478.687524 40.000003 480.000025 40.000003 C 481.312525 40.000003 482.614608 40.062503 483.9219 40.192711 C 485.223983 40.322919 486.520858 40.510419 487.802108 40.770836 C 489.088567 41.026044 490.3594 41.343753 491.6094 41.723961 C 492.864608 42.104169 494.098983 42.541669 495.307317 43.046878 C 496.51565 43.546878 497.697942 44.104169 498.854192 44.723961 C 500.010442 45.338544 501.135442 46.015628 502.223984 46.739586 C 503.312525 47.468753 504.364609 48.250003 505.375026 49.078128 C 506.390651 49.911461 507.359401 50.79167 508.286484 51.713545 C 509.208359 52.640628 510.088567 53.609378 510.921901 54.625003 C 511.750026 55.63542 512.531276 56.687503 513.260443 57.776045 C 513.984401 58.864587 514.661484 59.989587 515.276068 61.145837 C 515.895859 62.302087 516.453151 63.484378 516.953151 64.692712 C 517.458359 65.901045 517.895859 67.13542 518.276068 68.390629 C 518.656276 69.640629 518.973984 70.911462 519.229193 72.197921 C 519.484401 73.479171 519.677109 74.776046 519.807318 76.078129 C 519.937526 77.385421 520.000026 78.687504 520.000026 80.000004 Z M 520.000026 80.000004 " transform="matrix(0.75, 0, 0, 0.75, 80.999997, 14.999999)"/>
<path fill-rule="nonzero" fill="rgb(50.19989%, 50.19989%, 50.19989%)" fill-opacity="1" stroke-width="5" stroke-linecap="butt" stroke-linejoin="miter" stroke="rgb(50.19989%, 50.19989%, 50.19989%)" stroke-opacity="1" stroke-miterlimit="4" d="M 455.000023 110.000005 C 455.000023 111.145839 454.942732 112.291672 454.833357 113.432297 C 454.718773 114.572922 454.552107 115.703131 454.328148 116.828131 C 454.10419 117.953131 453.828148 119.062506 453.494815 120.161464 C 453.161482 121.255214 452.776065 122.333339 452.333357 123.395839 C 451.895857 124.453131 451.406273 125.489589 450.869815 126.500006 C 450.328148 127.510423 449.739607 128.48959 449.098982 129.442715 C 448.463565 130.39584 447.781273 131.317715 447.057315 132.203131 C 446.328148 133.088548 445.557315 133.937506 444.750023 134.750006 C 443.937523 135.557298 443.088565 136.328132 442.203148 137.057298 C 441.317731 137.781257 440.395856 138.463548 439.442731 139.098965 C 438.489606 139.73959 437.510439 140.328132 436.500023 140.869798 C 435.489606 141.406257 434.453148 141.89584 433.395856 142.33334 C 432.333356 142.776048 431.255231 143.161465 430.161481 143.494798 C 429.062522 143.828132 427.953147 144.104174 426.828147 144.328132 C 425.703147 144.55209 424.572939 144.718757 423.432314 144.83334 C 422.291689 144.942715 421.145855 145.000007 420.000022 145.000007 C 418.854189 145.000007 417.708355 144.942715 416.56773 144.83334 C 415.427105 144.718757 414.296897 144.55209 413.171897 144.328132 C 412.046897 144.104174 410.937522 143.828132 409.838563 143.494798 C 408.744813 143.161465 407.666688 142.776048 406.604188 142.33334 C 405.546896 141.89584 404.510438 141.406257 403.500021 140.869798 C 402.489605 140.328132 401.510438 139.73959 400.557313 139.098965 C 399.604188 138.463548 398.682313 137.781257 397.796896 137.057298 C 396.911479 136.328132 396.062521 135.557298 395.250021 134.750006 C 394.442729 133.937506 393.671896 133.088548 392.942729 132.203131 C 392.218771 131.317715 391.536479 130.39584 390.901062 129.442715 C 390.260437 128.48959 389.671896 127.510423 389.130229 126.500006 C 388.593771 125.489589 388.104187 124.453131 387.666687 123.395839 C 387.223979 122.333339 386.838562 121.255214 386.505229 120.161464 C 386.171896 119.062506 385.895854 117.953131 385.671896 116.828131 C 385.447937 115.703131 385.281271 114.572922 385.166687 113.432297 C 385.057312 112.291672 385.000021 111.145839 385.000021 110.000005 C 385.000021 108.854172 385.057312 107.708339 385.166687 106.567714 C 385.281271 105.427089 385.447937 104.29688 385.671896 103.17188 C 385.895854 102.04688 386.171896 100.937505 386.505229 99.838547 C 386.838562 98.744797 387.223979 97.666672 387.666687 96.604172 C 388.104187 95.54688 388.593771 94.510421 389.130229 93.500005 C 389.671896 92.489588 390.260437 91.510421 390.901062 90.557296 C 391.536479 89.604171 392.218771 88.682296 392.942729 87.796879 C 393.671896 86.911463 394.442729 86.062504 395.250021 85.250004 C 396.062521 84.442713 396.911479 83.671879 397.796896 82.942713 C 398.682313 82.218754 399.604188 81.536463 400.557313 80.901046 C 401.510438 80.260421 402.489605 79.671879 403.500021 79.130212 C 404.510438 78.593754 405.546896 78.104171 406.604188 77.666671 C 407.666688 77.223962 408.744813 76.838546 409.838563 76.505212 C 410.937522 76.171879 412.046897 75.895837 413.171897 75.671879 C 414.296897 75.447921 415.427105 75.281254 416.56773 75.166671 C 417.708355 75.057296 418.854189 75.000004 420.000022 75.000004 C 421.145855 75.000004 422.291689 75.057296 423.432314 75.166671 C 424.572939 75.281254 425.703147 75.447921 426.828147 75.671879 C 427.953147 75.895837 429.062522 76.171879 430.161481 76.505212 C 431.255231 76.838546 432.333356 77.223962 433.395856 77.666671 C 434.453148 78.104171 435.489606 78.593754 436.500023 79.130212 C 437.510439 79.671879 438.489606 80.260421 439.442731 80.901046 C 440.395856 81.536463 441.317731 82.218754 442.203148 82.942713 C 443.088565 83.671879 443.937523 84.442713 444.750023 85.250004 C 445.557315 86.062504 446.328148 86.911463 447.057315 87.796879 C 447.781273 88.682296 448.463565 89.604171 449.098982 90.557296 C 449.739607 91.510421 450.328148 92.489588 450.864607 93.500005 C 451.406273 94.510421 451.895857 95.54688 452.333357 96.604172 C 452.776065 97.666672 453.161482 98.744797 453.494815 99.838547 C 453.828148 100.937505 454.10419 102.04688 454.328148 103.17188 C 454.552107 104.29688 454.718773 105.427089 454.833357 106.567714 C 454.942732 107.708339 455.000023 108.854172 455.000023 110.000005 Z M 455.000023 110.000005 " transform="matrix(0.75, 0, 0, 0.75, 80.999997, 14.999999)"/>
<path fill-rule="nonzero" fill="rgb(50.19989%, 50.19989%, 50.19989%)" fill-opacity="1" stroke-width="5" stroke-linecap="butt" stroke-linejoin="miter" stroke="rgb(50.19989%, 50.19989%, 50.19989%)" stroke-opacity="1" stroke-miterlimit="4" d="M 495.000025 110.000005 C 495.000025 111.145839 494.942733 112.291672 494.833358 113.432297 C 494.718775 114.572922 494.552108 115.703131 494.32815 116.828131 C 494.104192 117.953131 493.82815 119.062506 493.494817 120.161464 C 493.161483 121.255214 492.776067 122.333339 492.333358 123.395839 C 491.895858 124.453131 491.406275 125.489589 490.864608 126.500006 C 490.32815 127.510423 489.739608 128.48959 489.098983 129.442715 C 488.463567 130.39584 487.781275 131.317715 487.057316 132.203131 C 486.32815 133.088548 485.557316 133.937506 484.750025 134.750006 C 483.937525 135.557298 483.088566 136.328132 482.20315 137.057298 C 481.317733 137.781257 480.395858 138.463548 479.442733 139.098965 C 478.489608 139.73959 477.510441 140.328132 476.500024 140.869798 C 475.489608 141.406257 474.453149 141.89584 473.395858 142.33334 C 472.333358 142.776048 471.255232 143.161465 470.161482 143.494798 C 469.062524 143.828132 467.953149 144.104174 466.828149 144.328132 C 465.703149 144.55209 464.572941 144.718757 463.432315 144.83334 C 462.29169 144.942715 461.145857 145.000007 460.000024 145.000007 C 458.85419 145.000007 457.708357 144.942715 456.567732 144.83334 C 455.427107 144.718757 454.296898 144.55209 453.171898 144.328132 C 452.046898 144.104174 450.937523 143.828132 449.838565 143.494798 C 448.744815 143.161465 447.66669 142.776048 446.60419 142.33334 C 445.546898 141.89584 444.51044 141.406257 443.500023 140.869798 C 442.489606 140.328132 441.51044 139.73959 440.557315 139.098965 C 439.604189 138.463548 438.682314 137.781257 437.796898 137.057298 C 436.911481 136.328132 436.062523 135.557298 435.250023 134.750006 C 434.442731 133.937506 433.671898 133.088548 432.942731 132.203131 C 432.218773 131.317715 431.536481 130.39584 430.901064 129.442715 C 430.260439 128.48959 429.671897 127.510423 429.130231 126.500006 C 428.593772 125.489589 428.104189 124.453131 427.666689 123.395839 C 427.223981 122.333339 426.838564 121.255214 426.505231 120.161464 C 426.171897 119.062506 425.895856 117.953131 425.671897 116.828131 C 425.447939 115.703131 425.281272 114.572922 425.166689 113.432297 C 425.057314 112.291672 425.000022 111.145839 425.000022 110.000005 C 425.000022 108.854172 425.057314 107.708339 425.166689 106.567714 C 425.281272 105.427089 425.447939 104.29688 425.671897 103.17188 C 425.895856 102.04688 426.171897 100.937505 426.505231 99.838547 C 426.838564 98.744797 427.223981 97.666672 427.666689 96.604172 C 428.104189 95.54688 428.593772 94.510421 429.130231 93.500005 C 429.671897 92.489588 430.260439 91.510421 430.901064 90.557296 C 431.536481 89.604171 432.218773 88.682296 432.942731 87.796879 C 433.671898 86.911463 434.442731 86.062504 435.250023 85.250004 C 436.062523 84.442713 436.911481 83.671879 437.796898 82.942713 C 438.682314 82.218754 439.604189 81.536463 440.557315 80.901046 C 441.51044 80.260421 442.489606 79.671879 443.500023 79.130212 C 444.51044 78.593754 445.546898 78.104171 446.60419 77.666671 C 447.66669 77.223962 448.744815 76.838546 449.838565 76.505212 C 450.937523 76.171879 452.046898 75.895837 453.171898 75.671879 C 454.296898 75.447921 455.427107 75.281254 456.567732 75.166671 C 457.708357 75.057296 458.85419 75.000004 460.000024 75.000004 C 461.145857 75.000004 462.29169 75.057296 463.432315 75.166671 C 464.572941 75.281254 465.703149 75.447921 466.828149 75.671879 C 467.953149 75.895837 469.062524 76.171879 470.161482 76.505212 C 471.255232 76.838546 472.333358 77.223962 473.395858 77.666671 C 474.453149 78.104171 475.489608 78.593754 476.500024 79.130212 C 477.510441 79.671879 478.489608 80.260421 479.442733 80.901046 C 480.395858 81.536463 481.317733 82.218754 482.20315 82.942713 C 483.088566 83.671879 483.937525 84.442713 484.750025 85.250004 C 485.557316 86.062504 486.32815 86.911463 487.057316 87.796879 C 487.781275 88.682296 488.463567 89.604171 489.098983 90.557296 C 489.739608 91.510421 490.32815 92.489588 490.864608 93.500005 C 491.406275 94.510421 491.895858 95.54688 492.333358 96.604172 C 492.776067 97.666672 493.161483 98.744797 493.494817 99.838547 C 493.82815 100.937505 494.104192 102.04688 494.32815 103.17188 C 494.552108 104.29688 494.718775 105.427089 494.833358 106.567714 C 494.942733 107.708339 495.000025 108.854172 495.000025 110.000005 Z M 495.000025 110.000005 " transform="matrix(0.75, 0, 0, 0.75, 80.999997, 14.999999)"/>
<path fill-rule="nonzero" fill="rgb(50.19989%, 50.19989%, 50.19989%)" fill-opacity="1" d="M 441 52.5 C 441 53.238281 440.964844 53.972656 440.890625 54.707031 C 440.820312 55.4375 440.710938 56.167969 440.566406 56.890625 C 440.425781 57.613281 440.246094 58.328125 440.03125 59.03125 C 439.816406 59.738281 439.570312 60.429688 439.289062 61.109375 C 439.003906 61.792969 438.691406 62.457031 438.34375 63.105469 C 437.996094 63.757812 437.617188 64.386719 437.207031 65 C 436.796875 65.613281 436.359375 66.203125 435.894531 66.773438 C 435.425781 67.34375 434.929688 67.890625 434.410156 68.410156 C 433.890625 68.929688 433.34375 69.425781 432.773438 69.894531 C 432.203125 70.359375 431.613281 70.796875 431 71.207031 C 430.386719 71.617188 429.757812 71.996094 429.105469 72.34375 C 428.457031 72.691406 427.792969 73.003906 427.109375 73.289062 C 426.429688 73.570312 425.738281 73.816406 425.03125 74.03125 C 424.328125 74.246094 423.613281 74.425781 422.890625 74.566406 C 422.167969 74.710938 421.4375 74.820312 420.707031 74.890625 C 419.972656 74.964844 419.238281 75 418.5 75 C 417.761719 75 417.027344 74.964844 416.292969 74.890625 C 415.5625 74.820312 414.832031 74.710938 414.109375 74.566406 C 413.386719 74.425781 412.671875 74.246094 411.96875 74.03125 C 411.261719 73.816406 410.570312 73.570312 409.890625 73.289062 C 409.207031 73.003906 408.542969 72.691406 407.894531 72.34375 C 407.242188 71.996094 406.613281 71.617188 406 71.207031 C 405.386719 70.796875 404.796875 70.359375 404.226562 69.894531 C 403.65625 69.425781 403.109375 68.929688 402.589844 68.410156 C 402.070312 67.890625 401.574219 67.34375 401.105469 66.773438 C 400.640625 66.203125 400.203125 65.613281 399.792969 65 C 399.382812 64.386719 399.003906 63.757812 398.65625 63.105469 C 398.308594 62.457031 397.996094 61.792969 397.710938 61.109375 C 397.429688 60.429688 397.183594 59.738281 396.96875 59.03125 C 396.753906 58.328125 396.574219 57.613281 396.433594 56.890625 C 396.289062 56.167969 396.179688 55.4375 396.109375 54.707031 C 396.035156 53.972656 396 53.238281 396 52.5 C 396 51.761719 396.035156 51.027344 396.109375 50.292969 C 396.179688 49.5625 396.289062 48.832031 396.433594 48.109375 C 396.574219 47.386719 396.753906 46.671875 396.96875 45.96875 C 397.183594 45.261719 397.429688 44.570312 397.710938 43.890625 C 397.996094 43.207031 398.308594 42.542969 398.65625 41.894531 C 399.003906 41.242188 399.382812 40.613281 399.792969 40 C 400.203125 39.386719 400.640625 38.796875 401.105469 38.226562 C 401.574219 37.65625 402.070312 37.109375 402.589844 36.589844 C 403.109375 36.070312 403.65625 35.574219 404.226562 35.105469 C 404.796875 34.640625 405.386719 34.203125 406 33.792969 C 406.613281 33.382812 407.242188 33.003906 407.894531 32.65625 C 408.542969 32.308594 409.207031 31.996094 409.890625 31.710938 C 410.570312 31.429688 411.261719 31.183594 411.96875 30.96875 C 412.671875 30.753906 413.386719 30.574219 414.109375 30.433594 C 414.832031 30.289062 415.5625 30.179688 416.292969 30.109375 C 417.027344 30.035156 417.761719 30 418.5 30 C 419.238281 30 419.972656 30.035156 420.707031 30.109375 C 421.4375 30.179688 422.167969 30.289062 422.890625 30.433594 C 423.613281 30.574219 424.328125 30.753906 425.03125 30.96875 C 425.738281 31.183594 426.429688 31.429688 427.109375 31.710938 C 427.792969 31.996094 428.457031 32.308594 429.105469 32.65625 C 429.757812 33.003906 430.386719 33.382812 431 33.792969 C 431.613281 34.203125 432.203125 34.640625 432.773438 35.105469 C 433.34375 35.574219 433.890625 36.070312 434.410156 36.589844 C 434.929688 37.109375 435.425781 37.65625 435.894531 38.226562 C 436.359375 38.796875 436.796875 39.386719 437.207031 40 C 437.617188 40.613281 437.996094 41.242188 438.34375 41.894531 C 438.691406 42.542969 439.003906 43.207031 439.289062 43.890625 C 439.570312 44.570312 439.816406 45.261719 440.03125 45.96875 C 440.246094 46.671875 440.425781 47.386719 440.566406 48.109375 C 440.710938 48.832031 440.820312 49.5625 440.890625 50.292969 C 440.964844 51.027344 441 51.761719 441 52.5 Z M 441 52.5 "/>
<g clip-path="url(#clip-4)">
<path fill="none" stroke-width="5" stroke-linecap="butt" stroke-linejoin="miter" stroke="rgb(50.19989%, 50.19989%, 50.19989%)" stroke-opacity="1" stroke-miterlimit="4" d="M 480.000025 50.000003 C 480.000025 50.984378 479.953149 51.963545 479.854191 52.942711 C 479.760441 53.91667 479.614608 54.890628 479.421899 55.85417 C 479.234399 56.817712 478.994816 57.770837 478.708358 58.708337 C 478.421899 59.651045 478.093774 60.57292 477.718774 61.47917 C 477.338566 62.390628 476.921899 63.276045 476.458358 64.140629 C 475.994816 65.01042 475.489608 65.848962 474.942733 66.66667 C 474.395858 67.484379 473.812524 68.270837 473.192733 69.031254 C 472.567733 69.79167 471.906274 70.520837 471.213566 71.213545 C 470.520857 71.906254 469.791691 72.567712 469.031274 73.192712 C 468.270857 73.812504 467.484399 74.395837 466.666691 74.942712 C 465.848982 75.489587 465.010441 75.994796 464.140649 76.458337 C 463.276065 76.921879 462.390649 77.338546 461.47919 77.718754 C 460.57294 78.093754 459.651065 78.421879 458.708357 78.708337 C 457.770857 78.994796 456.817732 79.234379 455.85419 79.421879 C 454.890648 79.614587 453.91669 79.760421 452.942732 79.854171 C 451.963565 79.953129 450.984398 80.000004 450.000023 80.000004 C 449.015648 80.000004 448.036482 79.953129 447.057315 79.854171 C 446.083356 79.760421 445.109398 79.614587 444.145856 79.421879 C 443.182315 79.234379 442.22919 78.994796 441.29169 78.708337 C 440.348981 78.421879 439.427106 78.093754 438.520856 77.718754 C 437.609398 77.338546 436.723981 76.921879 435.859398 76.458337 C 434.989606 75.994796 434.151064 75.489587 433.333356 74.942712 C 432.515648 74.395837 431.729189 73.812504 430.968772 73.192712 C 430.208356 72.567712 429.479189 71.906254 428.786481 71.213545 C 428.093772 70.520837 427.432314 69.79167 426.807314 69.031254 C 426.187522 68.270837 425.604189 67.484379 425.057314 66.66667 C 424.510439 65.848962 424.005231 65.01042 423.541689 64.140629 C 423.078147 63.276045 422.66148 62.390628 422.281272 61.47917 C 421.906272 60.57292 421.578147 59.651045 421.291689 58.708337 C 421.00523 57.770837 420.765647 56.817712 420.578147 55.85417 C 420.385439 54.890628 420.239605 53.91667 420.145855 52.942711 C 420.046897 51.963545 420.000022 50.984378 420.000022 50.000003 C 420.000022 49.015628 420.046897 48.036461 420.145855 47.057294 C 420.239605 46.083336 420.385439 45.109378 420.578147 44.145836 C 420.765647 43.182294 421.00523 42.229169 421.291689 41.291669 C 421.578147 40.348961 421.906272 39.427086 422.281272 38.520836 C 422.66148 37.609377 423.078147 36.723961 423.541689 35.859377 C 424.005231 34.989586 424.510439 34.151044 425.057314 33.333336 C 425.604189 32.515627 426.187522 31.729169 426.807314 30.968752 C 427.432314 30.208335 428.093772 29.479169 428.786481 28.78646 C 429.479189 28.093752 430.208356 27.432294 430.968772 26.807294 C 431.729189 26.187502 432.515648 25.604169 433.333356 25.057294 C 434.151064 24.510419 434.989606 24.00521 435.859398 23.541668 C 436.723981 23.078127 437.609398 22.66146 438.520856 22.281252 C 439.427106 21.906252 440.348981 21.578127 441.29169 21.291668 C 442.22919 21.00521 443.182315 20.765627 444.145856 20.578127 C 445.109398 20.385418 446.083356 20.239585 447.057315 20.145835 C 448.036482 20.046877 449.015648 20.000002 450.000023 20.000002 C 450.984398 20.000002 451.963565 20.046877 452.942732 20.145835 C 453.91669 20.239585 454.890648 20.385418 455.85419 20.578127 C 456.817732 20.765627 457.770857 21.00521 458.708357 21.291668 C 459.651065 21.578127 460.57294 21.906252 461.47919 22.281252 C 462.390649 22.66146 463.276065 23.078127 464.140649 23.541668 C 465.010441 24.00521 465.848982 24.510419 466.666691 25.057294 C 467.484399 25.604169 468.270857 26.187502 469.031274 26.807294 C 469.791691 27.432294 470.520857 28.093752 471.213566 28.78646 C 471.906274 29.479169 472.567733 30.208335 473.192733 30.968752 C 473.812524 31.729169 474.395858 32.515627 474.942733 33.333336 C 475.489608 34.151044 475.994816 34.989586 476.458358 35.859377 C 476.921899 36.723961 477.338566 37.609377 477.718774 38.520836 C 478.093774 39.427086 478.421899 40.348961 478.708358 41.291669 C 478.994816 42.229169 479.234399 43.182294 479.421899 44.145836 C 479.614608 45.109378 479.760441 46.083336 479.854191 47.057294 C 479.953149 48.036461 480.000025 49.015628 480.000025 50.000003 Z M 480.000025 50.000003 " transform="matrix(0.75, 0, 0, 0.75, 80.999997, 14.999999)"/>
</g>
<path fill-rule="nonzero" fill="rgb(50.19989%, 50.19989%, 50.19989%)" fill-opacity="1" d="M 456 52.5 C 456 53.238281 455.964844 53.972656 455.890625 54.707031 C 455.820312 55.4375 455.710938 56.167969 455.566406 56.890625 C 455.425781 57.613281 455.246094 58.328125 455.03125 59.03125 C 454.816406 59.738281 454.570312 60.429688 454.289062 61.109375 C 454.003906 61.792969 453.691406 62.457031 453.34375 63.105469 C 452.996094 63.757812 452.617188 64.386719 452.207031 65 C 451.796875 65.613281 451.359375 66.203125 450.894531 66.773438 C 450.425781 67.34375 449.929688 67.890625 449.410156 68.410156 C 448.890625 68.929688 448.34375 69.425781 447.773438 69.894531 C 447.203125 70.359375 446.613281 70.796875 446 71.207031 C 445.386719 71.617188 444.757812 71.996094 444.105469 72.34375 C 443.457031 72.691406 442.792969 73.003906 442.109375 73.289062 C 441.429688 73.570312 440.738281 73.816406 440.03125 74.03125 C 439.328125 74.246094 438.613281 74.425781 437.890625 74.566406 C 437.167969 74.710938 436.4375 74.820312 435.707031 74.890625 C 434.972656 74.964844 434.238281 75 433.5 75 C 432.761719 75 432.027344 74.964844 431.292969 74.890625 C 430.5625 74.820312 429.832031 74.710938 429.109375 74.566406 C 428.386719 74.425781 427.671875 74.246094 426.96875 74.03125 C 426.261719 73.816406 425.570312 73.570312 424.890625 73.289062 C 424.207031 73.003906 423.542969 72.691406 422.894531 72.34375 C 422.242188 71.996094 421.613281 71.617188 421 71.207031 C 420.386719 70.796875 419.796875 70.359375 419.226562 69.894531 C 418.65625 69.425781 418.109375 68.929688 417.589844 68.410156 C 417.070312 67.890625 416.574219 67.34375 416.105469 66.773438 C 415.640625 66.203125 415.203125 65.613281 414.792969 65 C 414.382812 64.386719 414.003906 63.757812 413.65625 63.105469 C 413.308594 62.457031 412.996094 61.792969 412.710938 61.109375 C 412.429688 60.429688 412.183594 59.738281 411.96875 59.03125 C 411.753906 58.328125 411.574219 57.613281 411.433594 56.890625 C 411.289062 56.167969 411.179688 55.4375 411.109375 54.707031 C 411.035156 53.972656 411 53.238281 411 52.5 C 411 51.761719 411.035156 51.027344 411.109375 50.292969 C 411.179688 49.5625 411.289062 48.832031 411.433594 48.109375 C 411.574219 47.386719 411.753906 46.671875 411.96875 45.96875 C 412.183594 45.261719 412.429688 44.570312 412.710938 43.890625 C 412.996094 43.207031 413.308594 42.542969 413.65625 41.894531 C 414.003906 41.242188 414.382812 40.613281 414.792969 40 C 415.203125 39.386719 415.640625 38.796875 416.105469 38.226562 C 416.574219 37.65625 417.070312 37.109375 417.589844 36.589844 C 418.109375 36.070312 418.65625 35.574219 419.226562 35.105469 C 419.796875 34.640625 420.386719 34.203125 421 33.792969 C 421.613281 33.382812 422.242188 33.003906 422.894531 32.65625 C 423.542969 32.308594 424.207031 31.996094 424.890625 31.710938 C 425.570312 31.429688 426.261719 31.183594 426.96875 30.96875 C 427.671875 30.753906 428.386719 30.574219 429.109375 30.433594 C 429.832031 30.289062 430.5625 30.179688 431.292969 30.109375 C 432.027344 30.035156 432.761719 30 433.5 30 C 434.238281 30 434.972656 30.035156 435.707031 30.109375 C 436.4375 30.179688 437.167969 30.289062 437.890625 30.433594 C 438.613281 30.574219 439.328125 30.753906 440.03125 30.96875 C 440.738281 31.183594 441.429688 31.429688 442.109375 31.710938 C 442.792969 31.996094 443.457031 32.308594 444.105469 32.65625 C 444.757812 33.003906 445.386719 33.382812 446 33.792969 C 446.613281 34.203125 447.203125 34.640625 447.773438 35.105469 C 448.34375 35.574219 448.890625 36.070312 449.410156 36.589844 C 449.929688 37.109375 450.425781 37.65625 450.894531 38.226562 C 451.359375 38.796875 451.796875 39.386719 452.207031 40 C 452.617188 40.613281 452.996094 41.242188 453.34375 41.894531 C 453.691406 42.542969 454.003906 43.207031 454.289062 43.890625 C 454.570312 44.570312 454.816406 45.261719 455.03125 45.96875 C 455.246094 46.671875 455.425781 47.386719 455.566406 48.109375 C 455.710938 48.832031 455.820312 49.5625 455.890625 50.292969 C 455.964844 51.027344 456 51.761719 456 52.5 Z M 456 52.5 "/>
<g clip-path="url(#clip-5)">
<path fill="none" stroke-width="5" stroke-linecap="butt" stroke-linejoin="miter" stroke="rgb(50.19989%, 50.19989%, 50.19989%)" stroke-opacity="1" stroke-miterlimit="4" d="M 500.000025 50.000003 C 500.000025 50.984378 499.95315 51.963545 499.854192 52.942711 C 499.760442 53.91667 499.614609 54.890628 499.4219 55.85417 C 499.2344 56.817712 498.994817 57.770837 498.708359 58.708337 C 498.4219 59.651045 498.093775 60.57292 497.718775 61.47917 C 497.338567 62.390628 496.9219 63.276045 496.458359 64.140629 C 495.994817 65.01042 495.489608 65.848962 494.942733 66.66667 C 494.395858 67.484379 493.812525 68.270837 493.192733 69.031254 C 492.567733 69.79167 491.906275 70.520837 491.213567 71.213545 C 490.520858 71.906254 489.791692 72.567712 489.031275 73.192712 C 488.270858 73.812504 487.4844 74.395837 486.666691 74.942712 C 485.848983 75.489587 485.010441 75.994796 484.14065 76.458337 C 483.276066 76.921879 482.39065 77.338546 481.479191 77.718754 C 480.572941 78.093754 479.651066 78.421879 478.708358 78.708337 C 477.770858 78.994796 476.817733 79.234379 475.854191 79.421879 C 474.890649 79.614587 473.916691 79.760421 472.942733 79.854171 C 471.963566 79.953129 470.984399 80.000004 470.000024 80.000004 C 469.015649 80.000004 468.036482 79.953129 467.057316 79.854171 C 466.083357 79.760421 465.109399 79.614587 464.145857 79.421879 C 463.182315 79.234379 462.22919 78.994796 461.29169 78.708337 C 460.348982 78.421879 459.427107 78.093754 458.520857 77.718754 C 457.609399 77.338546 456.723982 76.921879 455.859398 76.458337 C 454.989607 75.994796 454.151065 75.489587 453.333357 74.942712 C 452.515648 74.395837 451.72919 73.812504 450.968773 73.192712 C 450.208357 72.567712 449.47919 71.906254 448.786482 71.213545 C 448.093773 70.520837 447.432315 69.79167 446.807315 69.031254 C 446.187523 68.270837 445.60419 67.484379 445.057315 66.66667 C 444.51044 65.848962 444.005231 65.01042 443.54169 64.140629 C 443.078148 63.276045 442.661481 62.390628 442.281273 61.47917 C 441.906273 60.57292 441.578148 59.651045 441.29169 58.708337 C 441.005231 57.770837 440.765648 56.817712 440.578148 55.85417 C 440.38544 54.890628 440.239606 53.91667 440.145856 52.942711 C 440.046898 51.963545 440.000023 50.984378 440.000023 50.000003 C 440.000023 49.015628 440.046898 48.036461 440.145856 47.057294 C 440.239606 46.083336 440.38544 45.109378 440.578148 44.145836 C 440.765648 43.182294 441.005231 42.229169 441.29169 41.291669 C 441.578148 40.348961 441.906273 39.427086 442.281273 38.520836 C 442.661481 37.609377 443.078148 36.723961 443.54169 35.859377 C 444.005231 34.989586 444.51044 34.151044 445.057315 33.333336 C 445.60419 32.515627 446.187523 31.729169 446.807315 30.968752 C 447.432315 30.208335 448.093773 29.479169 448.786482 28.78646 C 449.47919 28.093752 450.208357 27.432294 450.968773 26.807294 C 451.72919 26.187502 452.515648 25.604169 453.333357 25.057294 C 454.151065 24.510419 454.989607 24.00521 455.859398 23.541668 C 456.723982 23.078127 457.609399 22.66146 458.520857 22.281252 C 459.427107 21.906252 460.348982 21.578127 461.29169 21.291668 C 462.22919 21.00521 463.182315 20.765627 464.145857 20.578127 C 465.109399 20.385418 466.083357 20.239585 467.057316 20.145835 C 468.036482 20.046877 469.015649 20.000002 470.000024 20.000002 C 470.984399 20.000002 471.963566 20.046877 472.942733 20.145835 C 473.916691 20.239585 474.890649 20.385418 475.854191 20.578127 C 476.817733 20.765627 477.770858 21.00521 478.708358 21.291668 C 479.651066 21.578127 480.572941 21.906252 481.479191 22.281252 C 482.39065 22.66146 483.276066 23.078127 484.14065 23.541668 C 485.010441 24.00521 485.848983 24.510419 486.666691 25.057294 C 487.4844 25.604169 488.270858 26.187502 489.031275 26.807294 C 489.791692 27.432294 490.520858 28.093752 491.213567 28.78646 C 491.906275 29.479169 492.567733 30.208335 493.192733 30.968752 C 493.812525 31.729169 494.395858 32.515627 494.942733 33.333336 C 495.489608 34.151044 495.994817 34.989586 496.458359 35.859377 C 496.9219 36.723961 497.338567 37.609377 497.718775 38.520836 C 498.093775 39.427086 498.4219 40.348961 498.708359 41.291669 C 498.994817 42.229169 499.2344 43.182294 499.4219 44.145836 C 499.614609 45.109378 499.760442 46.083336 499.854192 47.057294 C 499.95315 48.036461 500.000025 49.015628 500.000025 50.000003 Z M 500.000025 50.000003 " transform="matrix(0.75, 0, 0, 0.75, 80.999997, 14.999999)"/>
</g>
<path fill-rule="nonzero" fill="rgb(100%, 100%, 0%)" fill-opacity="1" stroke-width="5" stroke-linecap="butt" stroke-linejoin="miter" stroke="rgb(100%, 64.709473%, 0%)" stroke-opacity="1" stroke-miterlimit="4" d="M 350.000019 150.000007 C 350.000019 151.635424 349.921894 153.270841 349.760436 154.901049 C 349.598977 156.531257 349.359394 158.145841 349.041686 159.755216 C 348.718769 161.359383 348.322936 162.947924 347.848977 164.515633 C 347.369811 166.083341 346.822936 167.619799 346.192727 169.135425 C 345.567727 170.645841 344.869811 172.125008 344.093769 173.567716 C 343.322935 175.015633 342.484394 176.416675 341.572935 177.77605 C 340.661477 179.140633 339.687519 180.453133 338.65106 181.718758 C 337.609394 182.984383 336.515644 184.197925 335.354185 185.354175 C 334.197935 186.515634 332.984393 187.609384 331.718768 188.65105 C 330.453143 189.687509 329.140643 190.661467 327.77606 191.572925 C 326.416685 192.484384 325.015643 193.322926 323.567726 194.093759 C 322.125018 194.869801 320.645851 195.567717 319.135434 196.192717 C 317.619809 196.822926 316.083351 197.369801 314.515643 197.848967 C 312.947934 198.322926 311.359392 198.718759 309.755226 199.041676 C 308.145851 199.359384 306.531267 199.598967 304.901059 199.760426 C 303.27085 199.921884 301.635434 200.000009 300.000017 200.000009 C 298.3646 200.000009 296.729184 199.921884 295.098975 199.760426 C 293.468767 199.598967 291.848975 199.359384 290.244808 199.041676 C 288.640642 198.718759 287.0521 198.322926 285.484391 197.848967 C 283.916683 197.369801 282.380225 196.822926 280.8646 196.192717 C 279.354183 195.567717 277.875016 194.869801 276.432308 194.093759 C 274.984391 193.322926 273.583349 192.484384 272.223974 191.572925 C 270.859391 190.661467 269.546891 189.687509 268.281266 188.65105 C 267.015641 187.609384 265.802099 186.515634 264.645849 185.354175 C 263.48439 184.197925 262.39064 182.984383 261.348974 181.718758 C 260.312515 180.453133 259.338557 179.140633 258.427099 177.77605 C 257.51564 176.416675 256.677099 175.015633 255.906265 173.567716 C 255.130223 172.125008 254.432307 170.645841 253.807307 169.135425 C 253.177098 167.619799 252.630223 166.083341 252.151057 164.515633 C 251.677098 162.947924 251.281265 161.359383 250.958348 159.755216 C 250.64064 158.145841 250.401057 156.531257 250.239598 154.901049 C 250.07814 153.270841 250.000015 151.635424 250.000015 150.000007 C 250.000015 148.36459 250.07814 146.729174 250.239598 145.098965 C 250.401057 143.468757 250.64064 141.854173 250.958348 140.244798 C 251.281265 138.640632 251.677098 137.05209 252.151057 135.484381 C 252.630223 133.916673 253.177098 132.380215 253.807307 130.86459 C 254.432307 129.354173 255.130223 127.875006 255.906265 126.432298 C 256.677099 124.984381 257.51564 123.583339 258.427099 122.223964 C 259.338557 120.859381 260.312515 119.546881 261.348974 118.281256 C 262.39064 117.015631 263.48439 115.802089 264.645849 114.645839 C 265.802099 113.484381 267.015641 112.390631 268.281266 111.348964 C 269.546891 110.312505 270.859391 109.338547 272.223974 108.427089 C 273.583349 107.51563 274.984391 106.677089 276.432308 105.906255 C 277.875016 105.130214 279.354183 104.432297 280.8646 103.807297 C 282.380225 103.177088 283.916683 102.630213 285.484391 102.151047 C 287.0521 101.677088 288.640642 101.281255 290.244808 100.958338 C 291.848975 100.64063 293.468767 100.401047 295.098975 100.239588 C 296.729184 100.07813 298.3646 100.000005 300.000017 100.000005 C 301.635434 100.000005 303.27085 100.07813 304.901059 100.239588 C 306.531267 100.401047 308.145851 100.64063 309.755226 100.958338 C 311.359392 101.281255 312.947934 101.677088 314.515643 102.151047 C 316.083351 102.630213 317.619809 103.177088 319.135434 103.807297 C 320.645851 104.432297 322.125018 105.130214 323.567726 105.906255 C 325.015643 106.677089 326.416685 107.51563 327.77606 108.427089 C 329.140643 109.338547 330.453143 110.312505 331.718768 111.348964 C 332.984393 112.390631 334.197935 113.484381 335.354185 114.645839 C 336.515644 115.802089 337.609394 117.015631 338.65106 118.281256 C 339.687519 119.546881 340.661477 120.859381 341.572935 122.223964 C 342.484394 123.583339 343.322935 124.984381 344.093769 126.432298 C 344.869811 127.875006 345.567727 129.354173 346.192727 130.86459 C 346.822936 132.380215 347.369811 133.916673 347.848977 135.484381 C 348.322936 137.05209 348.718769 138.640632 349.041686 140.244798 C 349.359394 141.854173 349.598977 143.468757 349.760436 145.098965 C 349.921894 146.729174 350.000019 148.36459 350.000019 150.000007 Z M 350.000019 150.000007 " transform="matrix(0.75, 0, 0, 0.75, 80.999997, 14.999999)"/>
<path fill="none" stroke-width="4" stroke-linecap="butt" stroke-linejoin="miter" stroke="rgb(100%, 64.709473%, 0%)" stroke-opacity="1" stroke-miterlimit="4" d="M 300.000017 50.000003 L 300.000017 20.000002 " transform="matrix(0.75, 0, 0, 0.75, 80.999997, 14.999999)"/>
<path fill="none" stroke-width="4" stroke-linecap="butt" stroke-linejoin="miter" stroke="rgb(100%, 64.709473%, 0%)" stroke-opacity="1" stroke-miterlimit="4" d="M 300.000017 250.000011 L 300.000017 220.00001 " transform="matrix(0.75, 0, 0, 0.75, 80.999997, 14.999999)"/>
<path fill="none" stroke-width="4" stroke-linecap="butt" stroke-linejoin="miter" stroke="rgb(100%, 64.709473%, 0%)" stroke-opacity="1" stroke-miterlimit="4" d="M 150.000011 150.000007 L 100.000009 150.000007 " transform="matrix(0.75, 0, 0, 0.75, 80.999997, 14.999999)"/>
<path fill="none" stroke-width="4" stroke-linecap="butt" stroke-linejoin="miter" stroke="rgb(100%, 64.709473%, 0%)" stroke-opacity="1" stroke-miterlimit="4" d="M 500.000025 150.000007 L 450.000023 150.000007 " transform="matrix(0.75, 0, 0, 0.75, 80.999997, 14.999999)"/>
<path fill-rule="nonzero" fill="rgb(0%, 0%, 0%)" fill-opacity="1" stroke-width="4" stroke-linecap="butt" stroke-linejoin="miter" stroke="rgb(100%, 64.709473%, 0%)" stroke-opacity="1" stroke-miterlimit="4" d="M 240.000015 70.000004 L 210.000013 40.000003 " transform="matrix(0.75, 0, 0, 0.75, 80.999997, 14.999999)"/>
<path fill-rule="nonzero" fill="rgb(0%, 0%, 0%)" fill-opacity="1" stroke-width="4" stroke-linecap="butt" stroke-linejoin="miter" stroke="rgb(100%, 64.709473%, 0%)" stroke-opacity="1" stroke-miterlimit="4" d="M 360.00002 70.000004 L 390.000021 40.000003 " transform="matrix(0.75, 0, 0, 0.75, 80.999997, 14.999999)"/>
<path fill-rule="nonzero" fill="rgb(0%, 0%, 0%)" fill-opacity="1" stroke-width="4" stroke-linecap="butt" stroke-linejoin="miter" stroke="rgb(100%, 64.709473%, 0%)" stroke-opacity="1" stroke-miterlimit="4" d="M 240.000015 230.00001 L 210.000013 260.000012 " transform="matrix(0.75, 0, 0, 0.75, 80.999997, 14.999999)"/>
<path fill-rule="nonzero" fill="rgb(0%, 0%, 0%)" fill-opacity="1" stroke-width="4" stroke-linecap="butt" stroke-linejoin="miter" stroke="rgb(100%, 64.709473%, 0%)" stroke-opacity="1" stroke-miterlimit="4" d="M 360.00002 230.00001 L 390.000021 260.000012 " transform="matrix(0.75, 0, 0, 0.75, 80.999997, 14.999999)"/>
</svg>
